<?xml version="1.0" encoding="UTF-8" standalone="no"?>
<svg
   version="1.2"
   viewBox="0 0 449.16406 585.24377"
   width="449.16406"
   height="585.24377"
   id="svg10"
   sodipodi:docname="anbani-logo-bw.svg"
   inkscape:version="1.1.1 (3bf5ae0d25, 2021-09-20, custom)"
   xmlns:inkscape="http://www.inkscape.org/namespaces/inkscape"
   xmlns:sodipodi="http://sodipodi.sourceforge.net/DTD/sodipodi-0.dtd"
   xmlns="http://www.w3.org/2000/svg"
   xmlns:svg="http://www.w3.org/2000/svg"
   xmlns:rdf="http://www.w3.org/1999/02/22-rdf-syntax-ns#"
   xmlns:cc="http://creativecommons.org/ns#"
   xmlns:dc="http://purl.org/dc/elements/1.1/">
  <defs
     id="defs14" />
  <sodipodi:namedview
     id="namedview12"
     pagecolor="#ffffff"
     bordercolor="#666666"
     borderopacity="1.0"
     inkscape:pageshadow="2"
     inkscape:pageopacity="0.0"
     inkscape:pagecheckerboard="0"
     showgrid="false"
     fit-margin-top="0"
     fit-margin-left="0"
     fit-margin-right="0"
     fit-margin-bottom="0"
     inkscape:zoom="0.98426889"
     inkscape:cx="199.64057"
     inkscape:cy="338.83017"
     inkscape:window-width="2048"
     inkscape:window-height="1092"
     inkscape:window-x="0"
     inkscape:window-y="0"
     inkscape:window-maximized="1"
     inkscape:current-layer="layer1" />
  <title
     id="title2">anbani-logo-bw-svg</title>
  <style
     id="style4">
		tspan { white-space:pre }
		.s0 { fill: #334155;stroke: #ffffff;stroke-linecap:square;stroke-width: 11.3 } 
	</style>
  <g
     id="layer1"
     transform="translate(-0.01668143,-0.02456896)">
    <path
       id="path2730"
       style="color:#000000;fill:#1e293b;stroke-linecap:square;-inkscape-stroke:none;fill-opacity:1"
       d="m 331.25195,464.24609 c -22.11714,24.1184 -51.50832,41.11396 -82.97851,47.4336 -39.36537,7.9051 -82.1193,-1.16671 -116.56055,-33.86719 l -0.10156,-0.0957 -0.0977,-0.10157 c -21.2407,-22.26292 -33.544616,-50.02315 -36.603514,-78.1582 -0.15173,0.19267 -0.317693,0.3732 -0.46875,0.56641 -2.323248,2.97159 -4.56657,6.00861 -6.726562,9.10351 -2.159992,3.0949 -4.237296,6.24773 -6.226563,9.45508 -1.989266,3.20735 -3.892052,6.46839 -5.703125,9.77735 -1.811073,3.30894 -3.530839,6.66669 -5.15625,10.0664 -1.625411,3.39972 -3.15561,6.84265 -4.58789,10.32227 -1.432281,3.47962 -2.766366,6.99624 -3.998047,10.54492 -1.231682,3.54867 -2.361152,7.12945 -3.384766,10.73633 -1.023614,3.60688 -1.941922,7.24029 -2.75,10.89453 -0.04827,0.21827 -0.07751,0.43978 -0.125,0.6582 7.538421,11.5657 17.123771,23.3503 29.001953,35.23047 56.106444,51.3856 127.672184,66.34418 191.748044,52.40039 2.09355,-2.07707 4.16363,-4.18001 6.16211,-6.35547 2.31343,-2.51829 4.56164,-5.10067 6.74219,-7.74219 2.18055,-2.64151 4.29415,-5.34215 6.33594,-8.09765 2.04178,-2.7555 4.01301,-5.56555 5.91015,-8.42578 1.89715,-2.86024 3.72018,-5.77083 5.4668,-8.72657 1.74662,-2.95573 3.41564,-5.95606 5.00586,-8.99804 1.59022,-3.04199 3.10137,-6.12515 4.5293,-9.24414 1.42793,-3.119 2.77344,-6.27418 4.0332,-9.46094 1.25976,-3.18677 2.43382,-6.4051 3.51953,-9.65039 1.08571,-3.24529 2.0825,-6.51793 2.98828,-9.8125 0.90578,-3.29457 1.71949,-6.6107 2.43946,-9.94531 0.6093,-2.82209 1.1136,-5.66316 1.58593,-8.50782 z"
       transform="translate(0.01668143,0.02456896)" />
    <path
       style="color:#000000;fill:#1e293b;stroke-linecap:square;-inkscape-stroke:none;fill-opacity:1"
       d="m 215.82227,26.650391 c 1.48591,27.219924 9.48489,53.936837 22.34765,77.806639 26.76406,52.35279 76.79756,83.65166 118.94922,118.35547 l 0.0293,0.0234 0.0293,0.0234 c 36.11907,28.93056 66.05538,67.29147 74.86524,112.7754 l 0.0391,0.19531 0.0508,0.19336 c 25.58735,95.36851 -37.52696,199.16544 -135.65039,228.25781 33.39519,-39.38788 52.37055,-91.57179 47.80664,-143.35742 l -0.01,-0.10547 -0.0137,-0.10547 c -9.01642,-71.50712 -48.59182,-134.04762 -91.0957,-189 l -0.125,-0.16016 -0.13476,-0.15234 C 204.45092,177.27674 186.34959,93.452956 215.82227,26.650391 Z"
       id="path2724" />
    <path
       style="color:#000000;fill:#1e293b;stroke-linecap:square;-inkscape-stroke:none;fill-opacity:1"
       d="m 78.28125,207.90625 c 11.400405,8.13439 21.387736,18.28722 29.16992,29.94141 l 0.0215,0.0312 0.0215,0.0332 c 28.13721,40.92162 32.8584,97.14615 -6.25781,137.23242 -39.998793,40.9895 -64.133246,98.37296 -60.458986,155.81836 -2.658427,-4.19917 -5.207403,-8.5154 -6.84375,-11.63672 l -0.02148,-0.041 -0.02148,-0.041 C 1.9487662,460.66953 4.1983317,384.8918 39.541016,328.3125 l -0.199219,0.30078 C 64.373385,293.71302 78.604285,251.05586 78.28125,207.90625 Z"
       id="path2718" />
  </g>
  <metadata
     id="metadata1019">
    <rdf:RDF>
      <cc:Work
         rdf:about="">
        <dc:title>anbani-logo-bw-svg</dc:title>
      </cc:Work>
    </rdf:RDF>
  </metadata>
</svg>
