<?xml version="1.0" encoding="UTF-8" standalone="no"?>
<svg
   version="1.2"
   viewBox="0 0 438 577"
   width="438"
   height="577"
   id="svg10"
   sodipodi:docname="anbani-logo.svg"
   inkscape:label="left"
   inkscape:version="1.1.1 (3bf5ae0d25, 2021-09-20, custom)"
   xmlns:inkscape="http://www.inkscape.org/namespaces/inkscape"
   xmlns:sodipodi="http://sodipodi.sourceforge.net/DTD/sodipodi-0.dtd"
   xmlns="http://www.w3.org/2000/svg"
   xmlns:svg="http://www.w3.org/2000/svg"
   xmlns:rdf="http://www.w3.org/1999/02/22-rdf-syntax-ns#"
   xmlns:cc="http://creativecommons.org/ns#"
   xmlns:dc="http://purl.org/dc/elements/1.1/">
  <defs
     id="defs14" />
  <sodipodi:namedview
     id="namedview12"
     pagecolor="#ffffff"
     bordercolor="#666666"
     borderopacity="1.0"
     inkscape:pageshadow="2"
     inkscape:pageopacity="0.0"
     inkscape:pagecheckerboard="0"
     showgrid="false"
     inkscape:zoom="1.1005199"
     inkscape:cx="219.44174"
     inkscape:cy="288.50001"
     inkscape:window-width="2048"
     inkscape:window-height="1092"
     inkscape:window-x="0"
     inkscape:window-y="0"
     inkscape:window-maximized="1"
     inkscape:current-layer="svg10" />
  <title
     id="title2">anbani-logo-svg</title>
  <style
     id="style4">
		tspan { white-space:pre }
		.s0 { fill: #3730a3 } 
		.s1 { fill: #4f46e5 } 
	</style>
  <path
     id="path11698"
     class="s0"
     d="m 341.8,213.86 c 66.11,37.93 104.76,117.48 92.76,192.49 -30.39,163.44 -233.41,227 -359.36,111.55 -97.86,-97.77 -47.88,-195.11 48.46,-212.55 -42.11,45.28 -38.84,118.09 6.25,165.35 66.28,62.93 162.49,34.2 206.16,-31.99 51.81,-63.1 53.74,-159.38 5.72,-224.85 v 0 z"
     style="fill:#003399;fill-opacity:1" />
  <g
     id="g828"
     style="fill:#1d4ed8;fill-opacity:1">
    <path
       id="path11700"
       class="s1"
       d="m 216.11,0 c -3.19,34.12 5.15,68.74 21.34,98.77 25.86,50.65 74.99,81.6 117.55,116.64 36.83,29.5 67.73,68.87 76.88,116.11 28.04,104.51 -46.62,218.1 -158.06,239.72 40.23,-39.33 64.09,-96.58 59.13,-152.86 C 324.14,348.51 285.26,286.78 242.99,232.13 187.81,170.5 170.58,71.82 216.11,0.01 v 0 z"
       style="fill:#1d4ed8;fill-opacity:1" />
    <path
       id="path11702"
       class="s1"
       d="m 66.72,194.22 c 15.87,9.23 29.53,22.19 39.72,37.45 29.36,42.7 34.26,102.23 -6.87,144.38 C 56.37,420.32 32.12,484.3 42.75,545.74 38.01,544.4 27.76,527.57 23.22,518.91 -9.75,458.45 -7.44,380.68 29.04,322.28 55.47,285.43 69.73,239.66 66.72,194.23 v 0 z"
       inkscape:label="path11702"
       style="fill:#1d4ed8;fill-opacity:1" />
  </g>
  <metadata
     id="metadata831">
    <rdf:RDF>
      <cc:Work
         rdf:about="">
        <dc:title>anbani-logo-svg</dc:title>
      </cc:Work>
    </rdf:RDF>
  </metadata>
</svg>
