<?xml version="1.0" standalone="no"?>
<!DOCTYPE svg PUBLIC "-//W3C//DTD SVG 20010904//EN"
 "http://www.w3.org/TR/2001/REC-SVG-20010904/DTD/svg10.dtd">
<svg version="1.0" xmlns="http://www.w3.org/2000/svg"
 width="1024.000000pt" height="1024.000000pt" viewBox="0 0 1024.000000 1024.000000"
 preserveAspectRatio="xMidYMid meet">
<metadata>
Created by potrace 1.14, written by Peter Selinger 2001-2017
</metadata>
<g transform="translate(0.000000,1024.000000) scale(0.100000,-0.100000)"
fill="#000000" stroke="none">
<path d="M5020 10062 c-25 -42 -50 -89 -57 -104 -7 -16 -16 -28 -21 -28 -6 0
-10 -6 -9 -12 0 -7 -6 -28 -14 -46 -9 -22 -18 -31 -29 -27 -11 5 -12 3 -3 -6
8 -8 9 -18 1 -35 -6 -13 -14 -24 -18 -24 -4 0 -7 -6 -7 -12 -1 -20 -7 -43 -15
-48 -3 -3 -8 -14 -10 -25 -1 -11 -6 -23 -11 -26 -4 -3 -10 -14 -12 -25 -11
-45 -31 -94 -38 -94 -5 0 -6 -4 -3 -9 4 -5 1 -22 -5 -38 -7 -15 -13 -32 -14
-38 -1 -5 -3 -12 -4 -15 -2 -3 -4 -12 -6 -20 -2 -8 -7 -26 -10 -40 -4 -14 -7
-31 -7 -37 -1 -7 -5 -13 -9 -13 -5 0 -6 -7 -3 -15 4 -8 1 -15 -6 -15 -6 0 -9
-4 -5 -10 9 -15 -6 -61 -18 -53 -6 4 -7 1 -1 -8 12 -19 6 -50 -14 -73 -10 -12
-12 -16 -3 -11 10 6 12 1 6 -26 -4 -19 -13 -37 -19 -41 -8 -6 -8 -8 1 -8 7 0
10 -9 7 -22 -3 -13 -7 -43 -11 -68 -3 -25 -7 -52 -9 -60 -1 -8 -3 -19 -3 -23
-1 -5 -5 -6 -10 -2 -5 3 -13 1 -16 -5 -4 -6 -1 -9 7 -8 9 2 13 -9 11 -37 0
-22 -1 -57 -2 -78 -1 -21 -5 -36 -10 -32 -5 3 -13 0 -17 -6 -4 -8 -3 -9 5 -5
6 4 14 0 18 -9 3 -10 0 -21 -8 -26 -12 -7 -12 -9 0 -9 11 0 11 -3 0 -17 -8 -9
-9 -14 -3 -10 7 4 9 -2 6 -19 -3 -16 -9 -22 -16 -17 -7 5 -5 1 4 -7 15 -15 22
-100 8 -100 -4 0 -4 -10 0 -22 11 -30 4 -60 -11 -52 -7 3 -3 -2 7 -10 15 -12
16 -16 5 -16 -12 0 -12 -2 1 -10 13 -9 13 -10 0 -10 -9 0 -11 -3 -5 -8 6 -4
12 -32 13 -62 6 -108 10 -149 18 -161 5 -9 2 -10 -9 -6 -10 3 -17 2 -17 -3 0
-6 7 -10 16 -10 9 0 14 -7 12 -17 -1 -10 1 -24 5 -30 5 -9 2 -13 -9 -13 -16 0
-16 -1 2 -15 10 -8 16 -15 12 -15 -4 0 -3 -13 2 -30 5 -18 5 -30 -1 -30 -5 0
-9 5 -9 12 0 6 -3 8 -7 4 -5 -4 -1 -13 7 -19 16 -13 23 -36 24 -79 0 -16 4
-28 8 -28 4 0 8 -7 8 -15 0 -8 -5 -15 -12 -15 -6 0 -3 -6 8 -14 10 -8 16 -18
12 -22 -4 -4 -2 -14 5 -22 9 -13 9 -14 0 -8 -7 4 -13 3 -13 -3 0 -5 5 -11 10
-13 6 -2 12 -15 14 -29 1 -13 6 -31 11 -38 5 -10 4 -12 -3 -7 -17 10 -15 -3 4
-21 13 -13 13 -17 2 -24 -11 -7 -11 -9 0 -9 7 0 10 -4 7 -10 -3 -5 -1 -10 6
-10 6 0 9 -8 6 -20 -3 -11 0 -20 6 -20 7 0 5 -5 -3 -10 -12 -8 -12 -10 5 -10
17 0 17 -2 5 -10 -9 -6 -10 -10 -3 -10 10 0 29 -55 25 -72 -1 -5 2 -8 8 -8 5
0 10 -5 10 -10 0 -7 -7 -7 -22 0 -20 9 -21 9 -7 -2 9 -7 15 -19 13 -26 -1 -7
0 -8 3 -2 8 17 19 11 20 -12 2 -21 11 -45 35 -91 5 -10 6 -22 3 -27 -3 -4 1
-14 8 -22 8 -7 13 -21 11 -31 -1 -9 2 -17 6 -17 5 0 12 -10 15 -22 4 -13 13
-37 20 -54 8 -17 12 -44 9 -60 -3 -21 -2 -25 5 -14 5 8 7 19 4 25 -4 7 -2 7 5
0 6 -6 13 -20 15 -32 1 -11 8 -28 15 -35 6 -8 9 -18 5 -21 -3 -4 0 -7 7 -7 9
0 8 -5 -5 -13 -23 -18 -11 -40 17 -31 14 4 18 3 13 -6 -4 -6 1 -17 11 -25 16
-11 16 -15 5 -29 -12 -14 -12 -16 0 -11 14 5 50 -49 55 -81 1 -7 9 -20 17 -28
7 -8 20 -28 27 -45 7 -17 17 -31 22 -31 5 0 6 -4 3 -10 -3 -5 -3 -10 2 -10 13
0 43 -59 33 -65 -5 -3 -10 0 -13 7 -2 8 -3 7 -3 -2 1 -8 9 -14 19 -12 16 3 21
-8 17 -37 -1 -8 4 -11 12 -8 8 3 20 -4 27 -15 11 -18 10 -18 -11 -7 -20 11
-21 10 -11 -3 7 -8 10 -18 6 -22 -4 -4 0 -4 10 0 18 6 44 -18 69 -66 7 -13 21
-34 31 -45 9 -11 24 -28 33 -38 9 -10 13 -22 9 -25 -3 -4 -10 0 -14 7 -6 9
-11 10 -15 2 -4 -6 -1 -12 6 -13 7 0 18 -2 23 -2 6 -1 29 -21 50 -46 22 -24
34 -40 28 -36 -7 4 -13 2 -13 -3 0 -6 6 -11 13 -11 8 0 24 -12 38 -27 13 -14
19 -24 14 -20 -6 3 -17 1 -25 -5 -13 -8 -12 -9 1 -5 19 6 59 -18 59 -35 0 -6
-3 -8 -7 -5 -3 4 -12 2 -20 -4 -15 -13 -18 2 -3 17 7 7 6 11 -5 11 -8 0 -13
-2 -10 -5 2 -3 0 -13 -5 -22 -8 -15 -6 -18 8 -15 9 2 17 4 17 5 0 1 11 4 25 6
18 3 22 2 13 -7 -6 -6 -9 -19 -6 -28 3 -12 1 -11 -11 3 -9 11 -16 15 -16 9 0
-14 18 -26 43 -30 17 -3 17 -2 2 13 -9 9 -14 19 -11 22 9 8 51 -51 48 -67 -2
-9 2 -12 12 -8 15 6 20 -5 19 -41 -1 -9 3 -10 12 -2 9 8 14 6 19 -5 4 -11 2
-14 -7 -9 -8 5 -8 2 2 -9 7 -9 18 -14 24 -10 6 3 7 1 3 -5 -4 -7 -3 -12 2 -12
6 0 15 -13 21 -30 10 -32 24 -43 15 -12 -5 16 -5 16 6 0 6 -10 10 -20 10 -23
0 -3 9 -15 20 -27 11 -12 18 -28 15 -36 -3 -7 0 -10 6 -6 11 6 46 -35 41 -48
-1 -5 3 -8 8 -8 6 0 10 -8 10 -17 -1 -17 -1 -17 -11 -1 -5 10 -8 19 -7 21 4 4
-29 37 -36 37 -4 0 6 -18 20 -40 23 -34 29 -38 42 -28 10 8 13 9 9 2 -4 -7 0
-15 9 -18 14 -5 14 -9 3 -23 -10 -12 -10 -14 -1 -9 7 4 12 2 12 -4 0 -6 4 -9
9 -6 11 7 9 -13 -3 -34 -7 -12 -6 -13 5 -2 19 17 27 15 39 -10 11 -23 11 -23
-6 -3 -15 18 -16 18 -10 2 3 -10 6 -21 6 -23 0 -2 8 -4 17 -4 9 0 13 -3 10 -6
-3 -4 5 -15 18 -26 16 -12 22 -25 18 -36 -3 -9 -2 -14 2 -9 5 4 17 -5 26 -20
17 -26 17 -28 1 -47 -9 -11 -12 -16 -5 -13 6 4 16 0 22 -10 6 -10 11 -13 11
-8 0 6 -5 16 -12 23 -14 14 0 16 21 3 8 -5 10 -14 6 -22 -5 -8 -5 -11 0 -7 10
10 45 -36 51 -67 3 -20 1 -23 -13 -19 -15 5 -15 4 -3 -4 9 -7 19 -7 25 -2 13
11 49 -55 40 -71 -4 -5 -8 -18 -10 -30 -4 -20 -3 -20 20 -5 32 21 41 20 24 -1
-8 -9 -9 -14 -4 -11 6 3 23 -11 38 -33 16 -21 24 -39 18 -39 -5 0 -11 6 -14
13 -3 6 -4 2 -4 -10 1 -17 6 -22 19 -18 11 4 21 -2 28 -17 10 -21 10 -21 -3
-5 -13 16 -15 16 -21 2 -3 -9 -2 -13 4 -10 6 3 10 1 10 -4 0 -6 7 -11 15 -11
8 0 15 -4 15 -9 0 -5 8 -17 17 -27 16 -16 16 -16 -7 -10 -25 6 -25 6 1 -7 15
-7 24 -18 21 -26 -2 -8 0 -11 5 -8 9 6 35 -34 37 -56 1 -4 6 -11 11 -15 6 -4
19 -23 29 -42 19 -35 19 -35 -1 -18 -27 25 -38 23 -13 -2 11 -11 23 -20 28
-20 4 0 15 -14 25 -32 13 -22 15 -33 7 -38 -7 -5 -3 -9 11 -13 20 -5 21 -8 8
-23 -12 -16 -12 -17 3 -11 12 4 21 -3 33 -25 8 -17 15 -37 15 -45 0 -7 5 -13
12 -13 9 0 9 -3 0 -12 -15 -15 -15 -28 -1 -28 5 0 7 6 3 13 -5 8 -2 7 9 -2 13
-11 15 -17 6 -28 -10 -11 -8 -12 7 -7 18 5 18 4 -1 -11 l-20 -17 20 6 c16 4
23 -2 37 -34 9 -23 16 -42 15 -44 -1 -2 6 -12 15 -23 11 -11 14 -24 9 -32 -11
-17 -25 4 -15 22 5 9 4 9 -6 0 -11 -10 -11 -15 0 -28 10 -12 16 -13 28 -3 13
11 15 10 9 -4 -3 -9 1 -22 9 -29 8 -7 13 -18 10 -25 -3 -7 2 -15 10 -18 9 -3
12 -10 9 -16 -3 -5 -1 -10 4 -10 6 0 11 -4 11 -10 0 -5 -8 -7 -17 -4 -13 3
-12 1 2 -6 29 -16 46 -56 30 -70 -16 -13 -28 1 -19 24 3 9 2 16 -3 16 -13 0
-13 -32 0 -48 7 -9 13 -9 23 -1 11 9 17 2 31 -33 10 -23 16 -49 15 -57 -2 -7
1 -10 8 -6 6 3 10 3 9 -2 -1 -4 3 -21 9 -36 7 -16 12 -35 12 -43 0 -8 4 -14 9
-14 6 0 8 -9 6 -20 -2 -11 2 -20 8 -20 7 -1 0 -8 -15 -16 -16 -8 -28 -17 -28
-20 0 -2 9 0 19 6 32 16 38 12 51 -36 11 -39 11 -47 -1 -55 -11 -8 -9 -9 6 -7
15 2 20 -3 20 -22 0 -14 6 -31 13 -38 6 -7 12 -21 12 -31 0 -9 5 -22 12 -29 7
-7 9 -12 5 -12 -4 0 -1 -16 8 -35 8 -20 10 -33 5 -30 -6 3 -10 2 -10 -4 0 -5
5 -11 10 -13 6 -2 12 -13 13 -26 0 -12 5 -22 9 -22 5 0 4 -9 -2 -21 -7 -11 -9
-23 -6 -27 3 -3 6 1 6 8 0 16 13 5 16 -14 1 -7 5 -24 9 -37 5 -19 4 -21 -4 -9
-6 8 -11 10 -11 4 0 -6 7 -17 15 -24 8 -7 12 -16 9 -21 -3 -5 -1 -9 4 -9 5 0
9 -6 9 -12 1 -23 12 -84 19 -103 6 -14 4 -16 -7 -10 -8 5 -7 1 4 -12 23 -26
22 -40 -2 -19 -13 12 -21 14 -26 6 -4 -6 -1 -9 7 -8 7 2 13 -4 13 -12 0 -8 -6
-14 -13 -12 -8 1 -11 -2 -7 -8 5 -8 11 -8 20 0 8 7 20 8 26 4 9 -5 7 -11 -7
-22 -16 -13 -17 -14 -1 -9 13 5 17 0 18 -23 2 -39 3 -42 13 -59 7 -11 5 -13
-5 -9 -10 4 -15 -1 -15 -13 0 -13 4 -15 12 -8 10 8 13 2 16 -23 2 -20 -3 -38
-12 -46 -13 -10 -13 -11 3 -6 11 4 17 1 17 -10 0 -9 0 -19 0 -23 0 -5 -4 -8
-9 -8 -5 0 -13 -3 -17 -7 -3 -4 3 -6 14 -3 14 2 21 -2 21 -13 0 -9 2 -95 5
-191 4 -129 2 -179 -7 -190 -9 -12 -9 -13 1 -7 16 9 16 -6 0 -23 -11 -11 -10
-12 2 -6 13 8 13 6 1 -8 -7 -9 -18 -14 -24 -10 -6 3 -7 1 -3 -6 10 -15 -72
-123 -87 -114 -6 3 -7 1 -3 -5 7 -12 -8 -30 -150 -179 -62 -64 -96 -93 -104
-88 -9 5 -11 4 -6 -4 4 -6 -6 -22 -24 -38 -18 -15 -38 -33 -45 -40 -8 -7 -16
-13 -20 -13 -3 0 -15 -9 -27 -20 -12 -10 -26 -17 -31 -13 -6 3 -7 2 -4 -4 6
-9 -83 -82 -92 -75 -2 2 -8 -3 -13 -12 -5 -9 -14 -16 -19 -16 -6 0 -27 -13
-47 -29 -55 -43 -131 -83 -144 -75 -7 4 -8 3 -4 -4 4 -7 -4 -17 -21 -24 -15
-7 -44 -22 -63 -33 -19 -12 -64 -34 -100 -49 -36 -16 -83 -37 -105 -47 -48
-21 -277 -96 -320 -104 -16 -3 -34 -7 -40 -9 -18 -5 -90 -19 -110 -22 -11 -1
-20 -3 -20 -4 0 -3 -27 -7 -85 -13 -202 -23 -312 -28 -303 -14 4 6 1 7 -7 2
-28 -17 -252 0 -399 31 -115 24 -253 63 -269 77 -8 7 -18 11 -21 10 -8 -4 -69
16 -101 32 -14 7 -68 33 -120 59 -52 25 -104 52 -115 58 -11 7 -41 26 -67 42
-27 16 -48 33 -48 38 0 4 -3 7 -7 6 -12 -4 -83 42 -83 53 0 5 -5 9 -10 9 -19
0 -69 43 -63 53 3 6 1 7 -4 4 -6 -4 -32 13 -59 38 -26 25 -50 45 -52 45 -12 0
-72 73 -67 81 4 5 1 8 -5 7 -17 -4 -122 120 -114 134 4 6 3 8 -3 5 -6 -4 -25
14 -42 38 -18 25 -30 45 -27 45 3 0 -5 11 -17 24 -13 13 -29 37 -37 53 -8 15
-17 30 -20 33 -16 16 -38 68 -32 75 4 5 1 5 -5 1 -12 -7 -17 6 -16 41 0 6 -6
9 -15 6 -9 -4 -13 -2 -9 4 3 5 -4 25 -17 44 -13 19 -22 44 -21 56 1 13 -1 21
-3 18 -8 -8 -34 34 -27 45 3 6 1 10 -5 10 -6 0 -9 4 -6 9 4 5 2 11 -2 13 -16
6 -115 325 -106 340 3 5 1 8 -3 8 -5 0 -9 12 -10 27 -1 16 -4 43 -7 61 -3 17
-8 45 -10 61 -2 17 -7 35 -12 42 -5 9 -2 10 9 6 9 -3 19 -2 22 4 4 5 3 9 -2 8
-23 -4 -33 3 -32 24 0 12 -2 61 -4 109 -3 57 -2 86 5 82 7 -4 7 0 0 12 -12 22
16 64 42 64 9 0 16 5 16 11 0 5 -5 7 -12 3 -7 -4 -8 -3 -4 5 5 7 20 10 37 7
16 -2 27 0 23 5 -3 5 0 9 7 9 7 0 9 3 6 6 -4 4 -13 2 -20 -4 -24 -20 -26 -2
-2 24 24 26 41 31 47 12 3 -7 7 -5 11 6 4 9 3 15 -1 12 -4 -2 -14 -1 -22 5
-13 7 -12 9 2 9 9 0 20 9 23 20 7 21 25 28 25 10 0 -5 5 -10 11 -10 8 0 8 4 0
14 -13 15 -4 49 10 40 5 -3 9 2 9 11 0 10 5 13 12 9 8 -5 9 -2 5 9 -4 11 -1
17 9 17 8 0 12 -4 9 -10 -4 -6 1 -7 11 -3 15 6 15 7 0 15 -15 8 -14 12 6 37
13 16 29 37 36 47 7 11 10 13 7 7 -3 -7 -1 -13 6 -13 6 0 9 8 6 20 -3 14 3 26
20 40 14 11 21 20 14 20 -19 0 -12 18 10 25 11 4 18 9 15 12 -6 7 40 99 53
108 6 3 8 12 5 19 -3 8 7 26 23 42 15 15 20 22 10 14 -15 -11 -17 -11 -10 6
14 38 35 63 49 57 8 -3 14 0 14 6 0 6 -5 10 -11 8 -6 -1 -13 6 -14 16 -2 9 1
17 6 17 5 0 8 3 8 8 -5 24 15 72 30 72 13 0 13 2 2 9 -19 12 -4 54 17 47 16
-6 16 -5 0 7 -10 8 -14 18 -8 27 4 7 6 19 3 27 -3 7 0 13 7 13 6 0 8 5 5 10
-3 6 0 10 7 10 9 0 9 3 -2 10 -14 9 -7 15 15 10 6 -1 4 4 -2 11 -19 19 -16 49
5 50 10 0 12 3 5 6 -17 6 -17 40 0 46 7 3 7 6 1 6 -7 1 -8 17 -4 49 4 26 7 62
6 80 -1 24 2 31 13 27 10 -4 11 -2 3 7 -5 7 -11 34 -13 61 -3 37 -1 47 11 48
13 0 13 1 0 7 -9 4 -15 22 -16 47 -1 22 -4 66 -7 98 -4 40 -2 57 6 57 8 0 7 3
-2 9 -7 5 -10 14 -7 20 4 6 2 11 -5 11 -7 0 -10 11 -7 30 2 16 1 31 -4 32 -5
2 -10 26 -11 55 -1 28 -5 49 -9 46 -5 -2 -9 5 -9 16 -1 12 -2 27 -3 34 -1 6
-4 14 -7 17 -4 3 -9 19 -10 35 -2 17 -7 33 -12 36 -4 3 -9 19 -10 36 -1 17 -6
29 -10 26 -5 -3 -7 1 -6 8 1 8 -5 30 -14 49 -8 19 -13 38 -11 42 3 5 0 8 -5 8
-6 0 -11 4 -11 9 0 5 -5 22 -12 38 -6 15 -11 31 -10 36 1 4 -3 7 -8 7 -6 0
-10 7 -10 15 0 9 -7 27 -16 40 -9 14 -12 25 -8 25 5 0 5 4 -1 8 -11 8 -48 71
-67 115 -7 15 -16 27 -20 27 -4 0 -8 5 -8 10 0 13 -120 194 -132 198 -4 2 -8
8 -8 13 0 8 -6 16 -58 77 -12 15 -20 33 -17 40 3 7 0 10 -5 7 -11 -7 -59 33
-60 48 0 9 -51 59 -143 140 -40 34 -74 64 -77 67 -3 3 -25 21 -50 40 -25 19
-47 38 -48 42 -2 5 -8 8 -12 8 -5 0 -37 18 -71 40 -34 22 -65 40 -69 40 -4 0
-6 -17 -5 -37 0 -21 -3 -44 -8 -50 -6 -9 -5 -13 2 -13 6 0 11 -7 11 -16 0 -8
-4 -13 -9 -9 -5 3 -13 1 -16 -5 -4 -6 -1 -9 7 -8 10 2 13 -16 13 -79 1 -49 -3
-79 -9 -76 -5 4 -6 1 -1 -8 5 -7 9 -24 8 -36 -1 -13 -2 -51 -2 -85 -1 -45 -4
-59 -11 -48 -6 9 -10 10 -10 3 0 -6 4 -14 8 -17 5 -3 7 -19 4 -35 -2 -17 -8
-29 -12 -26 -5 3 -12 1 -15 -5 -4 -6 -1 -9 6 -8 9 2 12 -10 10 -42 -2 -25 -5
-48 -7 -52 -3 -4 -7 -31 -10 -60 -3 -29 -9 -57 -12 -63 -3 -5 -5 -22 -3 -37 1
-16 -2 -28 -7 -28 -6 0 -8 -10 -4 -22 4 -16 2 -19 -8 -13 -9 5 -11 4 -6 -4 4
-7 2 -35 -5 -64 -17 -67 -16 -64 -18 -83 0 -8 -5 -13 -9 -10 -4 2 -8 -7 -9
-22 -1 -46 -15 -92 -26 -85 -6 4 -7 1 -2 -7 8 -12 -11 -87 -27 -105 -4 -5 -8
-17 -8 -27 0 -10 -4 -18 -10 -18 -5 0 -7 -7 -4 -15 4 -8 0 -23 -7 -32 -8 -9
-14 -19 -13 -22 3 -17 -10 -40 -19 -34 -5 3 -7 1 -3 -5 3 -6 1 -23 -6 -39 -6
-15 -12 -32 -12 -36 -1 -4 -5 -11 -11 -15 -5 -4 -10 -13 -11 -19 -2 -30 -5
-34 -16 -27 -7 4 -8 3 -4 -5 4 -6 -4 -35 -17 -64 -14 -28 -34 -73 -46 -99 -12
-27 -27 -48 -33 -48 -6 0 -9 -3 -5 -6 11 -11 -56 -125 -70 -120 -7 3 -13 1
-13 -4 0 -6 5 -10 10 -10 7 0 7 -6 0 -17 -6 -10 -21 -36 -35 -58 -13 -22 -28
-39 -34 -38 -6 2 -8 -3 -5 -10 2 -7 -4 -24 -15 -36 -11 -13 -23 -32 -26 -42
-4 -11 -10 -19 -13 -19 -4 0 -16 -16 -26 -35 -11 -19 -23 -35 -28 -35 -4 0 -8
-5 -8 -11 0 -14 -80 -152 -94 -161 -6 -4 -7 -8 -3 -8 4 0 -4 -20 -17 -45 -14
-25 -23 -45 -19 -45 4 0 -2 -7 -13 -15 -10 -8 -15 -15 -10 -15 5 0 2 -7 -5
-16 -7 -9 -14 -25 -16 -36 -4 -28 -22 -58 -34 -58 -6 0 -8 -4 -5 -9 8 -12 -14
-72 -24 -66 -5 3 -12 0 -16 -6 -5 -8 -3 -9 6 -4 9 6 12 4 8 -6 -3 -8 -11 -32
-19 -54 -8 -22 -16 -42 -19 -45 -3 -3 -6 -13 -8 -24 -2 -10 -8 -30 -14 -45 -6
-14 -12 -32 -14 -40 -1 -8 -9 -18 -16 -22 -9 -6 -9 -9 -1 -9 9 0 8 -9 -3 -35
-15 -37 -39 -135 -36 -147 1 -5 -2 -9 -8 -9 -5 -1 -14 -2 -19 -3 -5 0 -13 -4
-17 -8 -3 -4 3 -5 15 -3 18 3 21 1 15 -17 -3 -11 -8 -28 -9 -37 -2 -9 -4 -17
-5 -18 -2 -2 -4 -7 -5 -13 -1 -5 -3 -11 -4 -12 -1 -2 -4 -25 -6 -52 -3 -27 -8
-52 -13 -55 -4 -3 -8 -17 -9 -31 -4 -84 -9 -103 -28 -117 -16 -12 -16 -14 -2
-9 16 5 17 1 11 -42 -4 -26 -7 -55 -6 -65 1 -16 -2 -17 -16 -5 -15 11 -15 10
1 -8 9 -11 15 -23 13 -25 -6 -6 -17 -162 -18 -264 0 -54 -5 -93 -12 -97 -8 -6
-7 -8 2 -8 6 0 12 -10 12 -23 0 -13 -6 -29 -12 -36 -11 -11 -10 -12 1 -6 11 6
13 3 9 -13 -4 -12 -2 -25 4 -28 5 -3 1 -12 -9 -20 -14 -11 -14 -13 -2 -9 12 5
16 0 14 -22 0 -15 2 -47 5 -70 4 -23 3 -49 -2 -57 -6 -10 -5 -16 2 -16 6 0 9
-4 6 -8 -3 -4 -1 -25 4 -45 6 -27 5 -35 -4 -30 -8 5 -8 3 0 -8 6 -8 10 -24 9
-37 -1 -12 2 -22 7 -22 5 0 8 -8 7 -17 -2 -10 0 -31 4 -46 5 -18 3 -34 -4 -43
-9 -11 -8 -14 6 -14 12 0 16 -6 12 -20 -3 -11 -1 -20 4 -20 5 0 9 -5 9 -11 0
-5 -4 -8 -8 -5 -5 3 -9 -1 -9 -9 0 -8 4 -12 8 -10 3 3 12 -15 18 -40 13 -51
13 -69 1 -40 -7 15 -9 16 -9 4 -1 -9 6 -22 14 -29 16 -13 21 -35 6 -25 -5 3
-13 1 -16 -5 -4 -6 -3 -10 2 -9 23 4 35 -2 29 -16 -3 -8 2 -31 10 -50 8 -20
12 -40 9 -45 -4 -6 -1 -10 6 -10 8 0 7 -5 -2 -17 -8 -9 -9 -14 -3 -10 6 3 16
-5 23 -19 6 -15 7 -23 1 -19 -5 3 -10 1 -10 -4 0 -6 4 -11 9 -11 7 0 17 -22
20 -45 0 -3 8 -19 16 -35 14 -28 14 -30 -2 -31 -14 0 -13 -2 4 -9 13 -5 24
-16 24 -25 1 -8 2 -21 3 -27 1 -7 7 -19 14 -27 7 -7 11 -20 8 -27 -3 -8 -2
-14 3 -14 13 0 31 -49 24 -67 -4 -10 -2 -14 4 -10 5 3 17 -10 27 -29 9 -20 12
-33 7 -30 -5 4 -13 2 -16 -4 -4 -6 -3 -10 2 -9 17 3 33 -1 31 -8 -2 -13 23
-67 35 -75 8 -5 8 -14 -1 -35 -11 -25 -11 -26 2 -10 8 10 17 14 20 9 3 -5 2
-12 -2 -16 -3 -4 -7 -24 -9 -44 -1 -20 2 -30 6 -23 5 7 7 23 5 37 -1 13 2 22
7 18 15 -9 47 -78 42 -92 -3 -7 1 -11 9 -10 7 2 13 -6 13 -17 1 -11 7 -19 14
-17 7 1 9 -2 6 -8 -4 -6 -14 -9 -22 -6 -8 3 -11 1 -8 -5 4 -5 16 -7 28 -3 19
6 20 5 9 -9 -15 -17 -8 -37 11 -36 9 0 9 2 0 6 -7 2 -13 9 -13 14 0 4 7 6 15
3 8 -4 15 -15 15 -25 0 -10 5 -19 12 -19 6 0 9 -3 5 -6 -3 -3 3 -16 14 -28 12
-11 26 -30 31 -41 10 -18 10 -19 -5 -6 -11 8 -17 9 -17 2 0 -6 11 -13 24 -17
31 -8 82 -84 64 -96 -10 -7 -10 -8 2 -7 29 3 41 -1 35 -11 -3 -6 0 -10 8 -10
7 0 23 -9 35 -20 12 -12 23 -17 23 -13 4 28 4 39 -3 48 -3 6 -8 30 -11 53 -3
36 -2 42 12 37 12 -4 11 -1 -3 9 -10 8 -15 19 -11 25 3 6 1 11 -6 11 -7 0 -4
7 7 15 16 13 17 14 1 9 -19 -7 -21 15 -2 28 6 5 5 8 -2 8 -7 0 -13 7 -13 16 0
8 4 13 8 10 5 -3 9 1 9 9 0 8 -4 12 -8 10 -7 -5 -17 66 -11 84 2 6 9 8 14 5 7
-4 8 -2 4 5 -4 6 -12 9 -17 6 -5 -4 -9 40 -9 109 0 99 2 117 18 126 14 9 14
11 1 7 -12 -4 -16 1 -16 19 0 13 3 21 8 19 4 -3 11 -1 14 5 4 6 3 10 -2 9 -22
-4 -25 3 -7 17 10 8 13 13 6 9 -10 -5 -12 5 -10 43 2 28 6 48 10 45 5 -2 8 1
8 6 0 6 -4 11 -10 11 -6 0 -6 9 0 24 5 13 6 27 2 32 -4 4 2 4 12 0 19 -7 19
-6 2 13 -17 18 -17 20 1 30 10 6 12 11 6 11 -14 0 -12 35 2 47 4 5 5 2 0 -6
-6 -10 -4 -12 4 -7 8 5 9 12 2 20 -11 13 -5 75 10 101 4 6 5 18 4 28 -2 9 1
15 6 11 5 -3 7 -9 4 -14 -3 -4 -2 -10 2 -12 13 -5 73 -86 73 -97 0 -6 -5 -11
-11 -11 -6 0 -8 7 -5 16 6 14 4 15 -9 4 -15 -12 -15 -14 2 -23 10 -6 22 -15
26 -21 6 -7 7 -4 3 7 -3 9 -1 17 4 17 6 0 10 -9 10 -21 0 -11 4 -18 9 -15 13
9 31 -18 22 -33 -6 -9 -11 -10 -15 -2 -4 6 -4 16 0 23 4 6 3 8 -4 4 -6 -3 -10
-15 -9 -25 1 -19 12 -22 33 -8 7 4 15 0 18 -9 3 -8 2 -12 -3 -9 -5 3 -12 2
-15 -3 -2 -4 5 -9 16 -9 27 -2 28 -5 21 -31 -5 -19 -8 -21 -22 -10 -14 12 -14
11 -2 -4 15 -19 31 -15 31 8 0 8 5 14 12 14 6 0 9 -3 6 -6 -4 -3 1 -13 10 -23
9 -9 33 -36 52 -59 19 -24 47 -57 62 -74 30 -33 35 -48 17 -48 -5 0 -7 5 -4
10 3 6 1 10 -4 10 -14 0 -14 -17 -1 -25 6 -4 18 -1 27 7 12 9 15 10 9 0 -5 -8
1 -15 15 -20 14 -5 18 -11 11 -16 -6 -3 -13 -2 -17 4 -3 5 -11 10 -18 10 -6 0
-2 -6 8 -14 11 -8 23 -12 28 -9 5 3 17 -3 28 -13 14 -13 16 -20 8 -30 -8 -10
-6 -19 6 -36 11 -14 15 -16 12 -6 -3 9 -3 19 1 21 4 2 1 2 -5 1 -7 -2 -13 1
-13 7 0 6 8 9 18 7 9 -2 16 -8 15 -13 -1 -6 5 -14 13 -18 8 -4 14 -13 14 -19
0 -7 -5 -6 -15 2 -10 9 -15 9 -15 1 0 -6 4 -11 9 -11 5 0 12 -7 15 -16 4 -12
2 -15 -9 -10 -8 3 -15 1 -15 -4 0 -16 26 -11 41 7 10 11 10 14 1 9 -6 -4 -12
-3 -12 3 0 18 18 21 24 4 4 -9 -1 -25 -11 -37 -17 -19 -17 -20 0 -7 11 9 17
10 17 2 0 -6 5 -11 11 -11 8 0 9 4 0 13 -21 26 1 25 30 -1 19 -17 26 -29 20
-35 -7 -7 -16 -6 -26 3 -8 7 -18 10 -22 6 -3 -3 -1 -6 6 -6 7 0 9 -5 5 -13 -4
-6 -4 -9 1 -5 4 4 17 3 28 -3 12 -7 17 -7 13 -1 -3 5 1 13 10 16 12 5 15 2 10
-10 -5 -12 -2 -15 9 -10 9 3 13 2 10 -4 -3 -6 1 -10 10 -10 9 0 13 -4 10 -10
-5 -9 9 -15 18 -7 2 1 10 -5 19 -13 8 -8 34 -31 58 -50 24 -19 48 -40 55 -47
7 -7 15 -10 17 -7 3 2 13 -6 24 -18 10 -13 15 -20 10 -15 -5 4 -18 0 -28 -10
-10 -9 -18 -11 -18 -5 0 6 5 14 10 17 6 3 10 11 10 16 0 6 -4 8 -9 5 -5 -4
-33 15 -62 41 -28 27 -59 47 -67 45 -9 -2 -11 1 -6 9 4 7 3 10 -3 6 -5 -4 -20
3 -31 14 -12 11 -22 16 -22 11 0 -12 60 -55 68 -48 3 4 18 -6 34 -20 25 -24
26 -28 11 -39 -13 -10 -13 -14 -3 -20 8 -5 11 -4 7 2 -13 20 22 22 36 3 8 -11
17 -17 22 -12 4 4 5 -1 2 -11 -10 -26 2 -41 20 -26 17 15 52 19 59 8 2 -4 -6
-15 -18 -23 -12 -9 -17 -16 -11 -16 7 0 15 5 18 10 8 14 28 13 49 -3 21 -16
12 -48 -12 -40 -13 4 -14 3 -4 -5 8 -5 13 -13 12 -18 -1 -5 4 -10 12 -12 9 -3
10 -1 1 5 -9 6 -7 15 7 33 12 15 20 19 20 11 0 -8 3 -11 7 -8 3 4 13 1 21 -5
12 -10 9 -17 -20 -41 l-33 -29 33 22 c28 19 35 20 50 8 15 -12 16 -11 3 4 -7
10 -9 18 -3 18 5 0 12 -7 16 -15 3 -8 12 -15 21 -15 8 0 15 -4 15 -10 0 -5 7
-10 15 -10 21 0 30 -27 15 -45 -9 -11 -9 -15 -1 -15 7 0 10 -4 7 -8 -3 -5 1
-9 9 -9 18 0 28 24 13 33 -7 4 -8 3 -4 -4 4 -7 2 -12 -4 -12 -7 0 -9 7 -6 16
3 9 6 19 6 22 0 4 4 2 8 -3 4 -6 33 -23 65 -40 31 -16 57 -32 57 -36 0 -4 -21
4 -46 18 -34 19 -48 23 -57 14 -8 -8 -8 -14 1 -23 7 -7 12 -9 12 -4 0 4 7 0
16 -9 12 -11 20 -13 27 -6 16 16 31 13 18 -3 -10 -11 -9 -16 4 -24 9 -5 16
-13 15 -18 -1 -5 4 -10 12 -12 9 -2 8 0 -2 7 -8 6 -10 11 -5 11 6 0 2 7 -8 14
-10 8 -14 17 -8 20 11 7 51 -40 51 -60 0 -7 4 -16 10 -19 7 -4 7 3 0 20 -13
33 -13 32 8 32 29 2 83 -18 77 -28 -6 -8 16 -14 38 -10 14 2 19 -29 7 -44 -9
-10 -9 -15 -1 -15 6 0 11 5 11 10 0 6 5 10 11 10 6 0 8 -7 5 -17 -4 -10 -4
-14 0 -10 4 3 15 -2 24 -13 17 -19 17 -19 28 5 12 26 36 25 46 -1 4 -9 -1 -13
-15 -11 -14 1 -24 -6 -30 -22 l-9 -23 32 21 c18 11 32 25 30 31 -1 5 2 10 8
10 18 0 10 -29 -12 -44 -12 -9 -19 -16 -14 -16 15 0 55 37 48 45 -4 5 -1 5 6
1 11 -6 10 -12 -3 -26 -16 -17 -15 -19 5 -30 12 -6 24 -9 27 -7 2 3 -5 8 -16
12 -12 3 -19 11 -16 16 3 5 17 2 30 -7 14 -9 22 -21 18 -27 -4 -6 -1 -7 7 -2
10 6 12 4 7 -7 -4 -11 0 -15 11 -13 9 1 21 -3 25 -9 6 -7 7 -6 4 4 -2 8 -9 14
-15 13 -5 -1 -13 4 -16 12 -8 22 11 18 37 -8 12 -12 25 -21 30 -19 4 1 7 -2 7
-8 0 -5 5 -10 11 -10 8 0 8 5 -1 15 -7 8 -16 12 -21 9 -5 -3 -9 -1 -9 4 0 14
39 22 46 10 3 -5 12 -7 20 -4 8 3 14 1 14 -5 0 -6 4 -8 9 -4 5 3 12 1 16 -5 4
-6 10 -8 15 -5 11 7 33 -22 26 -34 -4 -5 6 -22 20 -38 27 -28 24 -13 -4 20
-13 15 -13 17 1 17 9 0 19 -9 22 -21 5 -15 10 -17 19 -10 9 8 18 6 32 -5 18
-14 18 -15 -6 -9 -22 5 -23 4 -7 -5 13 -8 22 -9 31 -1 7 6 16 8 19 4 4 -3 -1
-12 -11 -20 -15 -13 -15 -13 6 -3 17 8 22 8 22 -2 1 -7 8 0 16 15 14 25 38 35
34 13 -2 -11 33 -35 43 -29 4 2 5 9 1 14 -3 5 -10 7 -15 4 -5 -4 -9 -1 -9 4 0
14 17 14 25 1 4 -6 10 -8 15 -5 4 3 23 -1 41 -9 19 -7 40 -11 47 -9 7 3 12 -3
12 -14 0 -14 -2 -15 -9 -5 -7 11 -10 10 -15 -3 -3 -9 -1 -24 4 -33 9 -14 10
-12 4 8 -6 23 -6 24 12 10 10 -8 22 -19 26 -25 5 -6 12 -5 19 2 10 10 17 9 31
-4 10 -9 18 -13 18 -8 0 4 6 2 14 -4 11 -9 15 -8 20 5 4 9 4 19 1 22 -3 3 -5
0 -5 -6 0 -7 -5 -12 -10 -12 -6 0 -5 8 2 19 7 11 17 17 23 13 5 -3 19 -8 30
-9 19 -3 38 -23 30 -32 -3 -2 -11 1 -18 7 -10 9 -18 8 -32 -2 -18 -13 -13 -37
8 -35 9 0 9 2 0 6 -7 2 -13 9 -13 14 0 6 5 7 10 4 6 -3 10 -1 10 5 0 6 5 8 10
5 6 -4 8 -11 5 -16 -3 -5 1 -6 10 -3 8 4 23 0 32 -7 16 -13 16 -12 0 11 -23
33 -21 41 6 36 24 -3 27 -9 13 -23 -5 -4 -7 -3 -3 3 3 6 0 11 -8 11 -11 0 -12
-4 -4 -13 6 -7 18 -10 27 -7 15 6 15 5 3 -10 -9 -11 -10 -17 -2 -17 6 0 11 5
11 10 0 6 5 10 10 10 7 0 7 -6 0 -19 -8 -16 -7 -19 8 -16 9 2 19 4 22 5 3 1
12 3 20 4 8 0 14 7 12 14 -1 6 5 12 13 12 8 0 15 5 15 12 0 16 13 1 16 -18 2
-10 -3 -14 -11 -10 -9 3 -12 0 -8 -10 4 -10 9 -12 18 -4 12 10 25 4 25 -12 0
-5 -5 -6 -12 -2 -7 4 -8 3 -4 -5 4 -6 12 -9 17 -6 5 4 9 1 9 -6 0 -7 3 -9 7
-6 4 4 -3 21 -16 37 -12 17 -18 30 -14 31 42 5 61 4 57 -3 -3 -4 1 -17 9 -29
15 -20 15 -20 36 7 12 15 21 21 21 13 0 -11 2 -11 10 1 6 10 10 11 10 3 0 -9
16 -12 55 -9 38 2 55 0 52 -8 -2 -6 -11 -10 -20 -10 -9 1 -14 -3 -10 -9 3 -6
1 -7 -6 -3 -6 4 -9 11 -7 15 3 4 -1 8 -9 8 -11 0 -12 -4 -4 -14 14 -16 -2 -18
-18 -2 -14 14 -33 3 -32 -19 1 -15 2 -15 6 0 5 20 18 23 28 8 3 -5 19 -8 35
-6 30 3 41 -8 18 -18 -7 -2 -3 -4 10 -2 12 1 28 9 35 16 10 12 9 12 -5 1 -15
-11 -17 -10 -15 8 1 12 5 21 10 21 4 0 5 5 1 11 -5 8 -1 8 13 0 11 -6 23 -7
27 -4 16 16 4 -17 -16 -42 -20 -26 -20 -26 -1 -15 11 7 25 25 31 39 7 17 10
19 6 5 -3 -15 3 -26 23 -39 18 -12 24 -13 16 -4 -6 8 -9 19 -5 24 10 14 54 15
49 1 -2 -6 -13 -10 -23 -8 -18 2 -18 2 0 -13 11 -8 25 -15 30 -14 6 0 5 3 -1
6 -10 3 -9 10 2 27 15 23 15 23 -25 21 -22 -1 -43 1 -45 5 -2 4 29 6 70 6 74
-1 88 -9 63 -34 -7 -7 -8 -12 -3 -12 6 0 3 -5 -5 -11 -13 -9 -13 -10 0 -6 8 2
14 10 12 16 -1 6 2 11 7 11 5 0 12 8 15 18 4 10 13 19 21 19 9 0 14 -5 12 -11
-3 -6 -10 -10 -16 -8 -16 3 -13 -9 6 -23 13 -10 19 -10 30 1 18 18 16 29 -2
14 -24 -20 -28 -6 -5 15 12 11 20 13 20 6 0 -7 5 -9 13 -4 18 11 67 12 67 1 0
-6 -7 -8 -15 -5 -8 4 -17 2 -20 -3 -11 -18 7 -35 41 -37 39 -2 40 9 1 13 -12
1 -25 3 -29 3 -5 1 -8 6 -8 12 0 5 4 8 9 5 12 -8 42 4 36 13 -2 4 2 8 11 8 10
0 12 -7 8 -20 -5 -15 -3 -19 10 -14 9 4 20 -1 25 -11 6 -9 11 -13 11 -9 0 4
-7 18 -16 31 -9 15 -11 27 -5 30 5 4 12 2 16 -4 3 -5 3 -10 -1 -10 -4 0 3 -11
16 -25 13 -14 19 -25 13 -25 -6 0 -14 -7 -17 -16 -4 -12 0 -11 20 5 14 11 32
17 41 14 8 -3 3 6 -11 21 -31 30 -48 35 -21 6 10 -11 14 -20 8 -20 -5 0 -18 9
-28 20 -11 12 -13 20 -6 20 7 0 10 3 8 8 -3 4 16 7 41 7 26 0 49 3 52 7 3 4
12 -2 19 -14 12 -19 11 -20 -6 -13 -24 10 -57 12 -60 3 -2 -5 -1 -7 2 -5 2 1
10 -7 18 -17 14 -19 15 -19 46 3 28 20 45 41 22 26 -5 -3 -12 -1 -16 5 -3 5 0
10 7 11 7 0 24 2 37 5 17 3 22 1 18 -11 -4 -8 -2 -17 3 -20 5 -3 7 -13 4 -23
-5 -14 -3 -14 6 2 9 13 9 20 2 25 -23 14 7 35 55 37 26 1 61 5 78 9 29 6 29 6
11 -14 -23 -25 -14 -28 13 -4 11 9 18 20 15 24 -2 4 9 6 26 4 17 -2 28 -1 26
4 -3 4 0 8 7 9 7 1 30 3 53 5 23 2 46 7 53 11 6 4 15 5 20 2 5 -4 11 -1 13 6
3 8 6 6 10 -4 5 -12 1 -15 -18 -13 -24 2 -53 -29 -40 -43 3 -3 6 0 6 6 0 6 6
10 13 8 6 -1 9 -1 5 1 -19 11 -6 23 12 13 11 -6 20 -8 20 -5 0 3 10 1 21 -6
15 -8 19 -8 15 0 -6 10 6 15 26 12 4 0 4 7 1 17 -6 15 -5 15 10 3 9 -7 14 -18
10 -24 -3 -6 -1 -7 5 -3 7 4 12 2 12 -5 0 -7 3 -9 6 -6 4 4 2 13 -4 20 -7 8
-9 17 -5 20 3 4 12 -1 20 -11 12 -16 13 -15 6 3 -6 17 -5 18 9 7 13 -10 17
-10 22 3 4 12 11 13 23 7 28 -14 48 -3 26 14 -17 13 -16 14 7 11 14 -1 29 -6
33 -12 5 -6 7 -3 4 6 -3 9 0 23 6 30 10 11 9 11 -4 1 -9 -6 -20 -8 -24 -4 -5
4 -5 2 -2 -4 3 -6 -3 -10 -16 -10 -14 1 -21 -4 -19 -13 2 -8 -3 -11 -12 -8 -9
4 -18 2 -21 -3 -4 -6 -11 -10 -16 -10 -6 0 -7 6 -3 13 6 9 5 9 -8 0 -14 -12
-28 -8 -28 8 0 5 6 6 14 3 8 -3 17 -1 20 5 4 6 13 8 21 4 8 -3 15 1 15 8 0 7
3 10 6 6 3 -3 17 -2 31 4 13 5 38 11 54 14 65 12 75 10 59 -10 -11 -13 -11
-18 -1 -28 10 -9 12 -8 9 7 -1 10 3 21 10 23 8 3 10 -1 5 -14 -7 -17 -6 -17
11 -1 17 18 42 25 32 10 -2 -4 4 -14 15 -20 19 -12 19 -12 4 12 -11 16 -13 26
-6 31 6 3 11 2 11 -3 0 -5 12 -14 27 -21 25 -11 24 -10 -6 18 -34 32 -47 39
-35 19 5 -7 3 -8 -6 -3 -8 5 -11 4 -7 -2 4 -6 0 -14 -9 -17 -25 -10 -27 -7
-13 12 13 15 12 16 -4 3 -12 -9 -21 -11 -28 -4 -6 6 -5 10 3 11 22 2 42 7 54
14 20 13 64 17 64 6 0 -5 -7 -8 -14 -5 -10 4 -13 1 -9 -9 4 -10 9 -12 18 -4
12 10 25 4 25 -12 0 -5 -5 -6 -12 -2 -7 4 -8 3 -4 -4 10 -16 14 -15 27 9 8 15
8 19 0 15 -6 -4 -11 -3 -11 2 0 19 14 21 34 5 18 -15 19 -16 8 -1 -12 15 -9
16 23 14 19 -1 35 -6 34 -11 0 -6 -10 -9 -22 -8 -20 3 -20 2 -4 -8 27 -16 50
6 35 31 -11 17 -48 24 -48 10 0 -4 -10 -6 -22 -5 -13 1 -29 -2 -35 -8 -9 -6
-13 -6 -13 2 0 10 4 12 25 11 3 0 18 6 34 14 16 9 31 12 35 9 3 -4 13 2 22 13
15 19 15 18 11 -2 -5 -25 8 -52 20 -41 4 5 1 12 -7 17 -12 8 -12 10 -1 10 7 0
11 6 8 14 -7 17 14 27 32 17 10 -6 9 -12 -4 -25 -9 -9 -12 -16 -6 -16 18 0 31
36 18 49 -7 7 -7 11 -2 10 6 -2 20 2 32 9 12 6 29 9 38 6 10 -4 15 -2 13 7 -2
8 3 13 10 11 6 -1 12 3 12 9 0 5 4 8 9 4 5 -3 12 -1 15 4 8 12 67 8 94 -8 13
-7 26 -10 29 -8 2 3 -4 8 -15 11 -18 6 -19 10 -9 36 6 17 16 29 22 29 25 -3
36 2 29 13 -4 6 -3 8 4 4 6 -3 13 -2 17 4 4 6 10 8 15 5 4 -3 10 2 14 10 3 9
12 12 22 8 13 -5 15 -3 9 7 -5 9 -4 11 3 6 7 -4 12 -2 12 4 0 6 5 8 12 4 8 -5
7 -10 -4 -18 -8 -6 -13 -17 -10 -24 3 -9 8 -6 16 10 7 12 19 22 28 20 20 -3
32 14 17 24 -7 4 -9 3 -5 -4 4 -6 -1 -10 -13 -9 -19 1 -19 2 -3 18 9 9 19 15
21 13 2 -2 10 1 18 7 7 6 23 9 34 6 17 -4 19 -3 10 6 -15 15 -14 24 4 24 8 0
12 -4 9 -9 -3 -4 0 -8 5 -8 6 0 11 8 11 18 0 19 45 47 69 43 7 -1 10 2 7 7 -3
5 1 15 9 22 8 7 15 9 15 4 0 -5 4 -3 9 5 5 8 17 16 26 17 9 1 25 12 36 25 10
12 20 19 20 16 1 -4 2 -11 3 -16 2 -13 14 -25 31 -27 8 -1 11 4 8 13 -5 12 -7
12 -14 1 -5 -7 -9 -11 -10 -8 0 3 -2 12 -4 21 -4 22 2 30 60 70 28 18 57 42
66 52 9 9 21 17 28 17 6 0 11 5 11 10 0 6 7 10 15 10 8 0 15 7 15 16 0 8 4 13
9 10 16 -10 0 -45 -17 -39 -13 4 -13 2 2 -9 12 -9 16 -20 11 -28 -5 -8 -4 -11
2 -7 6 4 11 18 11 32 0 36 19 55 53 51 16 -2 26 1 23 6 -3 5 -12 7 -20 4 -8
-3 -14 0 -14 6 0 6 -9 3 -20 -7 -11 -10 -20 -14 -20 -9 0 10 28 37 44 43 5 1
13 -3 17 -11 6 -9 8 -6 7 11 -2 13 2 26 8 28 8 2 10 -8 8 -28 -2 -18 -1 -29 2
-26 11 10 11 51 1 65 -7 9 -5 11 9 6 10 -4 16 -4 12 1 -8 9 15 35 31 35 6 0
10 4 9 8 -4 11 69 82 82 82 6 0 10 8 10 17 0 15 2 14 14 -2 8 -11 12 -24 9
-29 -4 -5 -1 -6 5 -2 9 5 8 12 -1 28 -9 16 -9 22 1 25 6 3 12 10 12 17 0 15
50 64 50 50 1 -5 9 6 18 25 18 35 25 41 80 61 17 7 32 17 32 22 0 5 -10 2 -22
-6 -32 -23 -48 -19 -18 4 14 11 21 20 16 20 -5 0 1 11 14 25 12 13 26 22 31
20 4 -3 10 -1 14 5 3 5 1 10 -5 10 -6 0 -8 5 -5 10 5 8 11 8 19 1 7 -6 16 -7
20 -3 5 4 5 -10 2 -30 -3 -20 -2 -39 2 -42 4 -2 7 15 7 37 0 26 -4 41 -12 40
-6 -1 -14 4 -17 13 -3 8 -2 13 2 11 9 -6 33 19 25 27 -4 3 -1 6 5 6 6 0 14 9
17 20 4 11 11 18 16 15 5 -4 9 -1 9 6 0 14 61 109 70 109 3 0 11 -5 18 -12 8
-8 12 -8 12 -1 0 6 -7 14 -16 17 -13 5 -11 12 12 43 41 56 44 59 39 34 -2 -12
0 -19 5 -16 5 3 7 17 4 30 -3 18 8 43 36 86 22 33 40 64 40 69 0 5 5 12 12 16
8 5 9 2 5 -10 -4 -10 -3 -15 4 -11 5 4 7 15 4 25 -6 19 31 90 47 90 5 0 6 5 3
10 -4 6 1 22 9 35 9 14 13 25 9 25 -5 0 -1 4 7 10 9 5 19 5 25 0 8 -7 12 -5
12 5 0 8 -4 12 -8 10 -14 -9 -17 24 -3 35 8 7 14 21 14 31 0 21 16 26 22 7 3
-7 7 -5 11 6 4 9 3 15 -2 11 -5 -3 -12 -1 -16 5 -3 5 -1 10 5 10 6 0 8 5 5 10
-3 6 2 10 12 11 10 0 13 3 6 6 -20 7 -15 23 5 16 13 -5 14 -3 5 7 -15 17 5 63
24 56 10 -4 11 -1 5 11 -12 20 -3 55 11 46 6 -4 8 3 3 20 -4 16 -1 29 6 33 8
5 9 2 5 -10 -4 -11 -3 -15 4 -10 6 3 8 15 6 26 -8 27 12 80 26 71 7 -4 6 1 -2
10 -10 13 -10 17 -1 17 7 0 10 7 7 15 -4 8 -2 17 4 20 5 4 7 10 4 15 -11 18
19 22 32 5 7 -11 13 -14 13 -7 0 6 -10 18 -22 26 -12 9 -18 16 -12 16 5 0 11
12 12 26 1 14 5 31 9 37 4 7 8 18 9 27 2 8 5 22 7 30 2 8 8 34 12 57 4 24 11
41 14 38 4 -2 7 8 7 23 1 69 4 83 17 76 9 -5 9 -4 0 6 -7 8 -8 21 -3 34 4 11
8 26 9 31 0 6 5 10 10 10 5 0 13 4 18 8 4 5 2 7 -6 5 -19 -4 -27 32 -9 44 10
7 10 11 1 14 -9 4 -9 13 -2 30 5 14 9 38 9 53 0 15 6 33 13 40 10 11 10 13 0
7 -7 -4 -13 -3 -13 3 0 5 6 12 13 14 9 4 9 6 -1 6 -8 1 -10 7 -5 19 5 9 8 56
8 104 0 55 4 84 10 80 6 -3 4 2 -4 11 -9 11 -10 17 -2 18 26 3 30 4 36 11 4 3
-1 5 -12 4 -28 -5 -32 2 -23 34 5 17 6 28 2 26 -4 -2 -7 17 -7 44 0 29 4 46
10 42 5 -3 4 1 -3 10 -7 9 -13 38 -12 65 0 26 -2 66 -5 88 -5 35 -16 121 -30
225 -3 19 -10 58 -16 85 -22 99 -27 130 -23 137 2 3 0 8 -5 10 -6 1 -12 17
-15 33 -2 17 -5 30 -6 30 -3 0 -10 40 -12 72 -2 18 -7 33 -12 33 -5 0 -7 3 -3
6 3 4 0 22 -8 40 -10 25 -11 34 -2 34 8 0 8 3 -1 9 -7 4 -15 14 -16 22 -2 8
-6 22 -10 31 -4 9 -9 23 -10 32 -1 8 -5 19 -9 22 -4 4 -7 17 -7 29 0 11 -5 26
-12 33 -8 8 -8 15 2 27 11 13 10 14 -5 8 -14 -5 -17 -3 -12 10 3 9 3 17 -1 17
-7 0 -32 58 -33 74 -1 3 -14 31 -29 63 -21 42 -25 60 -17 65 8 5 7 8 -4 8 -18
0 -33 26 -23 41 3 5 0 8 -7 7 -7 -2 -15 6 -17 17 -2 11 -13 32 -23 46 -10 14
-19 32 -21 40 -2 8 -5 16 -8 19 -8 8 -29 43 -42 70 -7 14 -20 30 -28 37 -8 7
-11 13 -6 13 5 0 3 7 -4 15 -6 8 -8 20 -4 26 4 7 3 9 -4 5 -6 -3 -20 7 -32 24
-12 16 -18 30 -14 30 4 0 -2 8 -12 18 -11 9 -25 29 -33 45 -8 15 -18 27 -23
27 -4 0 -8 6 -8 14 0 8 -3 16 -7 18 -17 7 -62 76 -55 83 4 5 1 5 -5 1 -7 -4
-13 -4 -13 1 0 4 -10 20 -23 35 -42 51 -57 72 -57 80 0 4 -5 8 -10 8 -17 0
-60 54 -55 68 3 7 1 11 -3 8 -10 -6 -78 64 -75 76 2 4 -1 8 -7 8 -14 0 -66 60
-62 72 1 5 -1 7 -6 4 -5 -3 -30 16 -55 42 -25 26 -66 65 -90 87 -25 22 -43 43
-40 48 2 4 0 6 -4 5 -15 -5 -123 94 -116 105 3 6 1 7 -6 3 -15 -10 -43 13 -34
28 3 6 3 8 -2 4 -7 -7 -73 38 -105 72 -8 9 -23 19 -33 23 -10 4 -15 12 -12 17
4 6 3 9 -2 8 -11 -4 -54 27 -48 35 3 4 2 5 -2 2 -5 -4 -88 56 -103 76 -3 3
-15 11 -28 18 -12 7 -20 16 -17 22 4 5 3 8 -2 7 -13 -5 -94 58 -85 66 4 4 2 6
-3 4 -12 -3 -115 72 -115 84 0 4 -6 8 -12 8 -7 0 -27 14 -45 30 -18 17 -36 30
-42 30 -5 0 -11 4 -13 8 -1 4 -23 23 -48 42 -76 58 -125 104 -122 113 1 5 -3
5 -9 1 -6 -3 -14 -3 -18 2 -3 5 -27 26 -53 47 -26 21 -53 43 -60 50 -7 7 -38
32 -68 57 -75 61 -80 67 -72 75 4 4 2 5 -4 3 -11 -3 -54 31 -146 115 -21 18
-35 37 -30 42 4 4 2 5 -4 2 -6 -4 -27 10 -46 31 -20 20 -44 44 -54 53 -30 25
-225 229 -219 229 3 0 -8 12 -23 28 -44 42 -182 216 -182 228 0 7 -7 15 -16
18 -9 4 -14 13 -10 22 3 8 2 12 -4 9 -5 -3 -15 5 -22 19 -6 14 -15 26 -21 26
-5 0 -6 8 -3 17 4 10 4 14 0 11 -10 -11 -46 40 -38 53 5 8 3 9 -6 4 -10 -6
-12 -3 -8 12 4 15 1 20 -11 19 -11 -1 -16 6 -15 21 1 13 -3 20 -8 17 -5 -3
-14 8 -21 25 -6 17 -15 31 -19 31 -4 0 -8 7 -8 15 0 8 -5 15 -11 15 -7 0 -9 9
-6 21 3 12 3 18 0 15 -8 -8 -53 66 -47 76 3 5 0 8 -6 8 -6 0 -8 5 -5 10 3 6 2
10 -3 10 -11 0 -34 49 -27 60 3 4 -2 11 -11 14 -8 3 -12 10 -9 16 3 5 1 10 -4
10 -6 0 -11 9 -11 20 0 11 -4 20 -8 20 -9 0 -35 68 -32 84 1 5 -2 12 -7 15 -9
6 -50 103 -55 131 -2 8 -7 18 -11 21 -4 3 -9 17 -11 30 -2 13 -9 37 -15 53 -6
16 -13 36 -14 45 -1 9 -6 22 -10 29 -5 6 -6 16 -3 21 4 5 2 11 -4 13 -5 1 -11
15 -12 31 -1 15 -6 27 -10 27 -4 0 -5 9 -3 20 2 11 0 20 -4 20 -5 0 -7 10 -7
23 1 12 -1 27 -6 33 -4 6 -10 24 -12 40 -3 16 -7 40 -11 54 -3 14 -8 41 -10
60 -3 19 -8 53 -11 75 -4 22 -8 55 -8 73 0 17 -4 32 -9 32 -5 0 -4 7 3 15 10
12 10 15 -1 15 -11 0 -11 2 1 10 8 5 10 10 3 10 -7 0 -11 20 -10 59 1 33 -1
57 -5 55 -3 -2 -5 86 -4 196 1 110 2 200 2 200 -1 -1 -21 -35 -46 -78z m-35
-3082 c-3 -5 -10 -10 -16 -10 -5 0 -9 5 -9 10 0 6 7 10 16 10 8 0 12 -4 9 -10z
m1183 -1722 c-2 -6 -10 -14 -16 -16 -7 -2 -10 2 -6 12 7 18 28 22 22 4z
m-2859 -4492 c13 -7 19 -16 13 -19 -5 -4 -15 0 -22 8 -7 8 -16 12 -21 9 -5 -3
-9 0 -9 5 0 14 10 13 39 -3z m97 -36 c8 0 14 -4 14 -10 0 -5 -5 -9 -12 -7 -20
4 -36 21 -30 32 3 5 7 4 10 -3 2 -7 10 -12 18 -12z m202 -100 c14 0 15 -10 3
-28 -9 -15 -19 -6 -41 38 -13 24 -12 25 7 8 11 -10 25 -18 31 -18z m3296 -5
c-4 -8 -8 -15 -10 -15 -2 0 -4 7 -4 15 0 8 4 15 10 15 5 0 7 -7 4 -15z m-24
-5 c0 -5 -2 -10 -4 -10 -3 0 -8 5 -11 10 -3 6 -1 10 4 10 6 0 11 -4 11 -10z
m-3230 -44 c0 -3 -4 -8 -10 -11 -5 -3 -10 -1 -10 4 0 6 5 11 10 11 6 0 10 -2
10 -4z m126 -23 c42 -18 47 -20 67 -22 9 -1 8 -4 -2 -10 -9 -6 -22 -4 -37 6
-13 8 -28 12 -34 8 -5 -3 -13 1 -16 9 -3 9 -10 13 -15 10 -5 -3 -9 0 -9 5 0
14 1 14 46 -6z m244 -91 c0 -4 10 -8 22 -9 11 -1 24 -6 27 -11 3 -5 19 -10 34
-10 34 1 39 -4 31 -26 -5 -12 -9 -14 -14 -6 -4 6 -13 12 -21 14 -8 1 -24 7
-35 14 -12 6 -24 9 -27 6 -3 -3 -15 4 -26 15 -16 16 -17 21 -6 21 8 0 15 -4
15 -8z m365 -103 c6 -4 17 -5 25 -4 9 2 17 -5 17 -16 2 -28 -14 -32 -31 -7
-13 18 -16 19 -22 5 -5 -13 -9 -14 -24 -4 -32 19 3 45 35 26z m1746 1 c6 0 7
-5 4 -10 -5 -8 -11 -8 -19 -1 -9 7 -17 5 -29 -9 -21 -25 -32 -25 -34 -1 -1 14
4 19 18 16 10 -2 19 1 19 7 0 5 7 7 16 4 9 -3 20 -6 25 -6z m-1503 -58 c2 -7
8 -12 13 -12 6 0 7 5 4 10 -3 6 1 10 11 10 13 0 14 -3 5 -13 -6 -8 -7 -18 -3
-22 4 -5 0 -6 -9 -2 -9 3 -22 0 -29 -6 -10 -10 -12 -8 -7 6 4 11 1 20 -8 23
-8 4 -15 10 -15 14 0 12 33 5 38 -8z m192 -23 c0 -12 -19 -21 -30 -14 -6 4 -8
10 -6 14 7 10 36 10 36 0z m734 -25 c16 -6 12 -24 -5 -24 -6 0 -8 4 -5 9 4 5
0 12 -6 14 -7 3 -10 6 -6 6 3 1 13 -2 22 -5z m-484 -14 c0 -5 -4 -10 -10 -10
-5 0 -10 5 -10 10 0 6 5 10 10 10 6 0 10 -4 10 -10z"/>
<path d="M4356 348 c3 -5 10 -6 15 -3 13 9 11 12 -6 12 -8 0 -12 -4 -9 -9z"/>
<path d="M5110 9410 c0 -5 5 -10 11 -10 5 0 7 5 4 10 -3 6 -8 10 -11 10 -2 0
-4 -4 -4 -10z"/>
<path d="M5130 9341 c0 -6 4 -13 10 -16 6 -3 7 1 4 9 -7 18 -14 21 -14 7z"/>
<path d="M4635 9131 c-3 -5 -2 -12 3 -15 5 -3 9 1 9 9 0 17 -3 19 -12 6z"/>
<path d="M4610 9000 c0 -5 5 -10 11 -10 5 0 7 5 4 10 -3 6 -8 10 -11 10 -2 0
-4 -4 -4 -10z"/>
<path d="M4566 8542 c-3 -5 1 -9 9 -9 8 0 12 4 9 9 -3 4 -7 8 -9 8 -2 0 -6 -4
-9 -8z"/>
<path d="M4595 8481 c-3 -5 -2 -12 3 -15 5 -3 9 1 9 9 0 17 -3 19 -12 6z"/>
<path d="M4600 8240 c-8 -5 -10 -10 -5 -10 6 0 17 5 25 10 8 5 11 10 5 10 -5
0 -17 -5 -25 -10z"/>
<path d="M4625 8040 c-3 -6 1 -7 9 -4 18 7 21 14 7 14 -6 0 -13 -4 -16 -10z"/>
<path d="M4630 7966 c0 -2 7 -7 16 -10 8 -3 12 -2 9 4 -6 10 -25 14 -25 6z"/>
<path d="M4685 7740 c-3 -6 1 -7 9 -4 18 7 21 14 7 14 -6 0 -13 -4 -16 -10z"/>
<path d="M4707 7579 c7 -7 15 -10 18 -7 3 3 -2 9 -12 12 -14 6 -15 5 -6 -5z"/>
<path d="M4737 7533 c-10 -9 -9 -23 1 -23 5 0 9 7 9 15 0 17 -1 18 -10 8z"/>
<path d="M4756 7493 c-6 -14 -5 -15 5 -6 7 7 10 15 7 18 -3 3 -9 -2 -12 -12z"/>
<path d="M4735 7460 c-3 -5 -1 -10 4 -10 6 0 11 5 11 10 0 6 -2 10 -4 10 -3 0
-8 -4 -11 -10z"/>
<path d="M4785 7399 c-4 -6 -5 -12 -2 -15 2 -3 7 2 10 11 7 17 1 20 -8 4z"/>
<path d="M4800 7360 c0 -5 5 -10 11 -10 5 0 7 5 4 10 -3 6 -8 10 -11 10 -2 0
-4 -4 -4 -10z"/>
<path d="M4814 7257 c-4 -7 -4 -9 1 -5 4 4 14 3 22 -3 8 -7 13 -8 13 -1 0 15
-28 23 -36 9z"/>
<path d="M4885 7120 c-3 -5 -1 -10 4 -10 6 0 11 5 11 10 0 6 -2 10 -4 10 -3 0
-8 -4 -11 -10z"/>
<path d="M4916 7047 c3 -10 9 -15 12 -12 3 3 0 11 -7 18 -10 9 -11 8 -5 -6z"/>
<path d="M4921 6996 c-9 -11 -9 -16 0 -22 7 -4 9 -3 5 4 -3 6 2 15 11 21 10 6
13 11 7 11 -6 0 -17 -6 -23 -14z"/>
<path d="M4970 6920 c0 -4 7 -7 15 -6 23 3 26 12 5 13 -11 1 -20 -2 -20 -7z"/>
<path d="M5020 6856 c0 -2 7 -7 16 -10 8 -3 12 -2 9 4 -6 10 -25 14 -25 6z"/>
<path d="M4980 6845 c0 -2 6 -8 13 -14 10 -8 14 -7 14 2 0 8 -6 14 -14 14 -7
0 -13 -1 -13 -2z"/>
<path d="M5026 6815 c4 -8 11 -15 16 -15 6 0 5 6 -2 15 -7 8 -14 15 -16 15 -2
0 -1 -7 2 -15z"/>
<path d="M5036 6778 c3 -5 10 -6 15 -3 13 9 11 12 -6 12 -8 0 -12 -4 -9 -9z"/>
<path d="M5076 6767 c3 -10 9 -15 12 -12 3 3 0 11 -7 18 -10 9 -11 8 -5 -6z"/>
<path d="M5093 6725 c0 -8 4 -15 9 -15 4 0 8 4 8 9 0 6 -4 12 -8 15 -5 3 -9
-1 -9 -9z"/>
<path d="M5051 6707 c2 -1 13 -9 24 -17 19 -14 19 -14 6 3 -7 9 -18 17 -24 17
-6 0 -8 -1 -6 -3z"/>
<path d="M5115 6670 c-4 -6 1 -7 11 -3 13 5 15 3 9 -7 -5 -9 -4 -11 4 -6 6 4
9 12 6 17 -8 12 -22 12 -30 -1z"/>
<path d="M2499 6618 c-5 -19 -8 -50 -4 -46 7 7 15 48 9 48 -2 0 -4 -1 -5 -2z"/>
<path d="M5115 6600 c-3 -5 -1 -10 4 -10 6 0 11 5 11 10 0 6 -2 10 -4 10 -3 0
-8 -4 -11 -10z"/>
<path d="M5155 6590 c10 -11 20 -20 23 -20 3 0 -3 9 -13 20 -10 11 -20 20 -23
20 -3 0 3 -9 13 -20z"/>
<path d="M5244 6498 c19 -32 20 -42 4 -32 -7 4 -8 3 -4 -5 7 -11 26 -6 26 7 0
4 -10 18 -21 32 l-21 25 16 -27z"/>
<path d="M5194 6502 c4 -3 14 -7 22 -8 9 -1 13 0 10 4 -4 3 -14 7 -22 8 -9 1
-13 0 -10 -4z"/>
<path d="M5277 6453 c-10 -9 -9 -23 1 -23 5 0 9 7 9 15 0 17 -1 18 -10 8z"/>
<path d="M5236 6422 c-3 -4 4 -9 15 -9 23 -2 25 3 4 10 -8 4 -16 3 -19 -1z"/>
<path d="M5290 6415 c0 -5 5 -17 10 -25 5 -8 10 -10 10 -5 0 6 -5 17 -10 25
-5 8 -10 11 -10 5z"/>
<path d="M5255 6380 c3 -5 8 -10 11 -10 2 0 4 5 4 10 0 6 -5 10 -11 10 -5 0
-7 -4 -4 -10z"/>
<path d="M5310 6322 c0 -4 11 -8 25 -8 28 0 24 8 -5 13 -11 2 -20 -1 -20 -5z"/>
<path d="M5371 6327 c-2 -18 20 -47 35 -47 9 0 12 -5 8 -12 -4 -7 -3 -8 5 -4
14 9 5 26 -13 26 -7 0 -18 10 -24 23 -6 12 -11 18 -11 14z"/>
<path d="M5388 6257 c8 -9 11 -21 8 -26 -4 -5 -1 -13 5 -17 8 -4 9 -3 5 4 -4
7 -2 12 3 12 18 0 12 14 -11 29 -21 13 -22 13 -10 -2z"/>
<path d="M5434 6227 c-4 -7 -4 -9 1 -5 4 4 14 3 22 -3 8 -7 13 -8 13 -1 0 15
-28 23 -36 9z"/>
<path d="M5413 6185 c0 -8 4 -12 9 -9 5 3 6 10 3 15 -9 13 -12 11 -12 -6z"/>
<path d="M5535 6069 c-4 -6 -5 -12 -2 -15 2 -3 7 2 10 11 7 17 1 20 -8 4z"/>
<path d="M5556 6061 c-3 -5 1 -14 9 -21 10 -9 15 -9 15 -1 0 6 -5 11 -11 11
-5 0 -7 5 -4 10 3 6 4 10 1 10 -3 0 -7 -4 -10 -9z"/>
<path d="M5590 6020 c0 -5 5 -10 10 -10 6 0 10 5 10 10 0 6 -4 10 -10 10 -5 0
-10 -4 -10 -10z"/>
<path d="M5615 5980 c-3 -5 -1 -10 4 -10 6 0 11 5 11 10 0 6 -2 10 -4 10 -3 0
-8 -4 -11 -10z"/>
<path d="M5630 5960 c-13 -8 -12 -10 3 -10 9 0 17 5 17 10 0 12 -1 12 -20 0z"/>
<path d="M5656 5942 c-2 -4 0 -14 6 -22 8 -12 9 -11 4 4 -5 14 -2 17 9 12 9
-3 13 -2 10 4 -7 12 -22 13 -29 2z"/>
<path d="M5560 5926 c0 -2 8 -10 18 -17 15 -13 16 -12 3 4 -13 16 -21 21 -21
13z"/>
<path d="M5710 5890 c-9 -6 -10 -10 -3 -10 6 0 15 5 18 10 8 12 4 12 -15 0z"/>
<path d="M5650 5859 c0 -5 5 -7 10 -4 6 3 10 8 10 11 0 2 -4 4 -10 4 -5 0 -10
-5 -10 -11z"/>
<path d="M5706 5858 c3 -4 12 -4 22 -1 15 6 16 5 2 -13 -14 -17 -13 -18 1 -7
9 7 20 9 25 5 4 -4 3 1 -4 10 -13 16 -56 22 -46 6z"/>
<path d="M5693 5825 c0 -8 4 -12 9 -9 5 3 6 10 3 15 -9 13 -12 11 -12 -6z"/>
<path d="M5735 5820 c-3 -5 -1 -10 4 -10 6 0 11 5 11 10 0 6 -2 10 -4 10 -3 0
-8 -4 -11 -10z"/>
<path d="M5750 5791 c0 -5 7 -12 16 -15 14 -5 15 -4 4 9 -14 17 -20 19 -20 6z"/>
<path d="M5775 5730 c-3 -5 -2 -18 4 -27 7 -14 9 -12 8 10 -2 30 -3 31 -12 17z"/>
<path d="M5830 5709 c0 -5 5 -7 10 -4 6 3 10 8 10 11 0 2 -4 4 -10 4 -5 0 -10
-5 -10 -11z"/>
<path d="M5804 5678 c-5 -7 -3 -8 5 -4 7 5 20 1 31 -9 14 -13 20 -14 26 -3 4
7 4 10 -1 6 -4 -4 -14 -1 -22 7 -17 18 -29 19 -39 3z"/>
<path d="M2326 5618 c3 -5 10 -6 15 -3 13 9 11 12 -6 12 -8 0 -12 -4 -9 -9z"/>
<path d="M5870 5603 c0 -6 8 -17 18 -24 16 -13 16 -13 2 6 -8 11 -16 22 -17
24 -2 2 -3 0 -3 -6z"/>
<path d="M5918 5573 c7 -3 16 -2 19 1 4 3 -2 6 -13 5 -11 0 -14 -3 -6 -6z"/>
<path d="M5945 5561 c-3 -5 -2 -12 3 -15 5 -3 9 1 9 9 0 17 -3 19 -12 6z"/>
<path d="M5935 5480 c-3 -5 -1 -10 4 -10 6 0 11 5 11 10 0 6 -2 10 -4 10 -3 0
-8 -4 -11 -10z"/>
<path d="M5973 5469 c-2 -23 3 -25 10 -4 4 8 3 16 -1 19 -4 3 -9 -4 -9 -15z"/>
<path d="M6056 5405 c4 -8 11 -15 16 -15 6 0 5 6 -2 15 -7 8 -14 15 -16 15 -2
0 -1 -7 2 -15z"/>
<path d="M6035 5380 c3 -5 8 -10 11 -10 2 0 4 5 4 10 0 6 -5 10 -11 10 -5 0
-7 -4 -4 -10z"/>
<path d="M6066 5368 c3 -5 10 -6 15 -3 13 9 11 12 -6 12 -8 0 -12 -4 -9 -9z"/>
<path d="M6067 5319 c7 -7 15 -10 18 -7 3 3 -2 9 -12 12 -14 6 -15 5 -6 -5z"/>
<path d="M6110 5300 c-9 -6 -10 -10 -3 -10 6 0 15 5 18 10 8 12 4 12 -15 0z"/>
<path d="M6085 5220 c-3 -6 1 -7 9 -4 18 7 21 14 7 14 -6 0 -13 -4 -16 -10z"/>
<path d="M6140 5205 c0 -1 8 -9 17 -16 14 -12 16 -12 8 0 -6 11 -4 13 9 8 10
-4 20 -7 22 -7 3 0 2 -5 -2 -12 -5 -7 -3 -8 5 -3 17 10 -1 27 -33 30 -14 2
-26 2 -26 0z"/>
<path d="M6150 5166 c0 -2 7 -7 16 -10 8 -3 12 -2 9 4 -6 10 -25 14 -25 6z"/>
<path d="M6190 5085 c0 -7 30 -13 34 -7 3 4 -4 9 -15 9 -10 1 -19 0 -19 -2z"/>
<path d="M6239 5078 c-9 -30 -6 -37 12 -28 23 13 25 22 2 13 -11 -4 -14 -3 -9
5 4 7 5 12 2 12 -3 0 -6 -1 -7 -2z"/>
<path d="M6266 5023 c6 -4 10 -16 8 -26 -1 -9 1 -15 6 -12 13 8 5 38 -11 43
-9 2 -10 1 -3 -5z"/>
<path d="M6295 4980 c-3 -5 -1 -10 4 -10 6 0 11 5 11 10 0 6 -2 10 -4 10 -3 0
-8 -4 -11 -10z"/>
<path d="M6312 4964 c-7 -8 -8 -14 -3 -14 10 0 25 19 20 25 -2 1 -10 -3 -17
-11z"/>
<path d="M6330 4918 c0 -6 3 -8 7 -5 3 4 13 1 22 -6 14 -11 14 -10 2 6 -15 20
-31 22 -31 5z"/>
<path d="M6413 4802 c1 -12 6 -18 15 -15 7 3 10 9 5 12 -4 3 -11 10 -15 15 -4
4 -6 -1 -5 -12z"/>
<path d="M3596 4793 c-6 -14 -5 -15 5 -6 7 7 10 15 7 18 -3 3 -9 -2 -12 -12z"/>
<path d="M3639 4793 c-13 -16 -12 -17 4 -4 16 13 21 21 13 21 -2 0 -10 -8 -17
-17z"/>
<path d="M3615 4749 c-4 -6 -5 -12 -2 -15 2 -3 7 2 10 11 7 17 1 20 -8 4z"/>
<path d="M6435 4749 c-4 -6 -5 -12 -2 -15 2 -3 7 2 10 11 7 17 1 20 -8 4z"/>
<path d="M8710 4756 c0 -2 8 -10 18 -17 15 -13 16 -12 3 4 -13 16 -21 21 -21
13z"/>
<path d="M6395 4729 c-4 -6 -5 -12 -2 -15 2 -3 7 2 10 11 7 17 1 20 -8 4z"/>
<path d="M6470 4715 c0 -5 5 -17 10 -25 5 -8 10 -10 10 -5 0 6 -5 17 -10 25
-5 8 -10 11 -10 5z"/>
<path d="M6430 4701 c0 -6 4 -13 10 -16 6 -3 7 1 4 9 -7 18 -14 21 -14 7z"/>
<path d="M3610 4679 c0 -5 5 -7 10 -4 6 3 10 8 10 11 0 2 -4 4 -10 4 -5 0 -10
-5 -10 -11z"/>
<path d="M6472 4650 c13 -20 28 -27 28 -12 0 4 -9 13 -20 20 -19 12 -20 11 -8
-8z"/>
<path d="M6557 4468 c19 -21 31 -25 14 -5 -6 8 -9 16 -6 19 3 2 -2 5 -10 5
-13 0 -13 -3 2 -19z"/>
<path d="M3510 4381 c0 -6 4 -12 8 -15 5 -3 9 1 9 9 0 8 -4 15 -9 15 -4 0 -8
-4 -8 -9z"/>
<path d="M6638 4333 c7 -3 16 -2 19 1 4 3 -2 6 -13 5 -11 0 -14 -3 -6 -6z"/>
<path d="M3475 4289 c-4 -6 -5 -12 -2 -15 2 -3 7 2 10 11 7 17 1 20 -8 4z"/>
<path d="M3496 4273 c-6 -14 -5 -15 5 -6 7 7 10 15 7 18 -3 3 -9 -2 -12 -12z"/>
<path d="M6650 4279 c0 -5 5 -7 10 -4 6 3 10 8 10 11 0 2 -4 4 -10 4 -5 0 -10
-5 -10 -11z"/>
<path d="M3490 4240 c0 -5 5 -10 11 -10 5 0 7 5 4 10 -3 6 -8 10 -11 10 -2 0
-4 -4 -4 -10z"/>
<path d="M3455 4200 c-3 -6 1 -7 9 -4 18 7 21 14 7 14 -6 0 -13 -4 -16 -10z"/>
<path d="M6635 4200 c3 -5 8 -10 11 -10 2 0 4 5 4 10 0 6 -5 10 -11 10 -5 0
-7 -4 -4 -10z"/>
<path d="M6708 4183 c7 -3 16 -2 19 1 4 3 -2 6 -13 5 -11 0 -14 -3 -6 -6z"/>
<path d="M3453 4161 c0 -11 5 -18 9 -15 4 3 5 11 1 19 -7 21 -12 19 -10 -4z"/>
<path d="M8850 4160 c0 -5 5 -10 11 -10 5 0 7 5 4 10 -3 6 -8 10 -11 10 -2 0
-4 -4 -4 -10z"/>
<path d="M6696 4139 c4 -7 44 0 44 7 0 2 -11 3 -24 2 -14 -1 -23 -5 -20 -9z"/>
<path d="M3394 4118 c-4 -7 -4 -10 1 -6 4 4 14 3 22 -4 11 -8 12 -7 7 6 -7 19
-20 21 -30 4z"/>
<path d="M6750 4100 c0 -5 5 -10 11 -10 5 0 7 5 4 10 -3 6 -8 10 -11 10 -2 0
-4 -4 -4 -10z"/>
<path d="M6751 4072 c-1 -7 -6 -10 -13 -6 -6 4 -8 3 -5 -4 8 -12 32 -10 44 3
4 4 3 5 -4 2 -6 -4 -14 -1 -16 5 -4 10 -6 10 -6 0z"/>
<path d="M3365 4050 c-16 -7 -17 -9 -3 -9 9 -1 20 4 23 9 7 11 7 11 -20 0z"/>
<path d="M6775 4005 c0 -13 3 -21 8 -18 4 2 7 10 7 18 0 8 -3 16 -7 18 -5 3
-8 -5 -8 -18z"/>
<path d="M3340 3999 c0 -5 5 -7 10 -4 6 3 10 8 10 11 0 2 -4 4 -10 4 -5 0 -10
-5 -10 -11z"/>
<path d="M3366 3982 c-3 -5 1 -9 9 -9 8 0 12 4 9 9 -3 4 -7 8 -9 8 -2 0 -6 -4
-9 -8z"/>
<path d="M3336 3962 c-3 -5 1 -9 9 -9 8 0 12 4 9 9 -3 4 -7 8 -9 8 -2 0 -6 -4
-9 -8z"/>
<path d="M6798 3932 c4 -10 7 -12 10 -4 2 7 9 9 15 5 7 -3 8 -2 4 2 -14 16
-36 14 -29 -3z"/>
<path d="M3270 3909 c0 -5 5 -7 10 -4 6 3 10 8 10 11 0 2 -4 4 -10 4 -5 0 -10
-5 -10 -11z"/>
<path d="M3333 3895 c0 -8 4 -12 9 -9 5 3 6 10 3 15 -9 13 -12 11 -12 -6z"/>
<path d="M6796 3902 c-3 -5 1 -9 9 -9 8 0 12 4 9 9 -3 4 -7 8 -9 8 -2 0 -6 -4
-9 -8z"/>
<path d="M3251 3887 c2 -1 14 -10 26 -20 16 -14 23 -15 29 -6 4 7 3 10 -3 6
-6 -4 -16 0 -23 8 -7 8 -17 15 -23 15 -6 0 -8 -1 -6 -3z"/>
<path d="M8873 3875 c0 -8 4 -12 9 -9 5 3 6 10 3 15 -9 13 -12 11 -12 -6z"/>
<path d="M3250 3842 c0 -5 7 -9 15 -9 8 0 12 4 9 9 -3 4 -9 8 -15 8 -5 0 -9
-4 -9 -8z"/>
<path d="M3215 3820 c3 -5 -1 -10 -9 -10 -9 0 -16 -5 -16 -10 0 -7 7 -7 20 0
17 9 20 30 4 30 -3 0 -2 -4 1 -10z"/>
<path d="M6833 3770 c-1 -11 2 -20 7 -20 4 0 7 7 6 15 -3 23 -12 26 -13 5z"/>
<path d="M3236 3767 c3 -10 9 -15 12 -12 3 3 0 11 -7 18 -10 9 -11 8 -5 -6z"/>
<path d="M1446 3738 c3 -5 10 -6 15 -3 13 9 11 12 -6 12 -8 0 -12 -4 -9 -9z"/>
<path d="M3210 3740 c0 -5 5 -10 11 -10 5 0 7 5 4 10 -3 6 -8 10 -11 10 -2 0
-4 -4 -4 -10z"/>
<path d="M3151 3707 c-13 -21 -12 -21 5 -5 10 10 16 20 13 22 -3 3 -11 -5 -18
-17z"/>
<path d="M6873 3715 c0 -7 6 -11 14 -8 7 3 13 6 13 8 0 2 -6 5 -13 8 -8 3 -14
-1 -14 -8z"/>
<path d="M3100 3716 c0 -2 8 -10 18 -17 15 -13 16 -12 3 4 -13 16 -21 21 -21
13z"/>
<path d="M6875 3679 c-3 -4 2 -6 10 -5 21 3 28 13 10 13 -9 0 -18 -4 -20 -8z"/>
<path d="M3093 3635 c0 -8 4 -12 9 -9 4 3 8 9 8 15 0 5 -4 9 -8 9 -5 0 -9 -7
-9 -15z"/>
<path d="M6895 3629 c-4 -6 -5 -12 -2 -15 2 -3 7 2 10 11 7 17 1 20 -8 4z"/>
<path d="M8895 3629 c-4 -6 -5 -12 -2 -15 2 -3 7 2 10 11 7 17 1 20 -8 4z"/>
<path d="M3020 3623 c0 -6 8 -14 17 -17 20 -8 40 9 22 19 -8 5 -10 4 -5 -3 9
-16 -7 -15 -22 0 -8 8 -12 8 -12 1z"/>
<path d="M2995 3600 c-3 -5 -1 -10 4 -10 6 0 11 5 11 10 0 6 -2 10 -4 10 -3 0
-8 -4 -11 -10z"/>
<path d="M3016 3582 c-2 -4 0 -14 6 -22 8 -12 9 -12 4 2 -3 10 1 18 12 21 16
4 16 5 0 6 -9 0 -19 -3 -22 -7z"/>
<path d="M6895 3579 c-3 -4 2 -6 10 -5 21 3 28 13 10 13 -9 0 -18 -4 -20 -8z"/>
<path d="M2990 3477 c0 -2 6 -10 14 -16 11 -9 16 -9 22 1 4 7 4 10 -1 6 -4 -4
-14 -3 -22 3 -7 6 -13 9 -13 6z"/>
<path d="M8895 3460 c-3 -5 -1 -10 4 -10 6 0 11 5 11 10 0 6 -2 10 -4 10 -3 0
-8 -4 -11 -10z"/>
<path d="M6936 3421 c-3 -4 6 -8 20 -9 13 -1 24 0 24 2 0 7 -40 14 -44 7z"/>
<path d="M6950 3378 c0 -4 4 -8 9 -8 6 0 12 4 15 8 3 5 -1 9 -9 9 -8 0 -15 -4
-15 -9z"/>
<path d="M8829 3143 c-13 -16 -12 -17 4 -4 9 7 17 15 17 17 0 8 -8 3 -21 -13z"/>
<path d="M8850 3121 c0 -6 4 -13 10 -16 6 -3 7 1 4 9 -7 18 -14 21 -14 7z"/>
<path d="M1339 3033 c-13 -16 -12 -17 4 -4 9 7 17 15 17 17 0 8 -8 3 -21 -13z"/>
<path d="M8801 2976 c-9 -11 -9 -16 1 -22 7 -4 10 -4 6 1 -4 4 -3 14 3 22 6 7
9 13 6 13 -2 0 -10 -6 -16 -14z"/>
<path d="M1333 2965 c0 -8 4 -12 9 -9 5 3 6 10 3 15 -9 13 -12 11 -12 -6z"/>
<path d="M3116 2967 c3 -10 9 -15 12 -12 3 3 0 11 -7 18 -10 9 -11 8 -5 -6z"/>
<path d="M1335 2900 c-3 -5 -1 -10 4 -10 6 0 11 5 11 10 0 6 -2 10 -4 10 -3 0
-8 -4 -11 -10z"/>
<path d="M1335 2860 c3 -5 8 -10 11 -10 2 0 4 5 4 10 0 6 -5 10 -11 10 -5 0
-7 -4 -4 -10z"/>
<path d="M8776 2853 c-6 -14 -5 -15 5 -6 7 7 10 15 7 18 -3 3 -9 -2 -12 -12z"/>
<path d="M8790 2819 c0 -5 5 -7 10 -4 6 3 10 8 10 11 0 2 -4 4 -10 4 -5 0 -10
-5 -10 -11z"/>
<path d="M8735 2739 c-4 -6 -5 -12 -2 -15 2 -3 7 2 10 11 7 17 1 20 -8 4z"/>
<path d="M8736 2678 c3 -4 11 -5 19 -1 21 7 19 12 -4 10 -11 0 -18 -5 -15 -9z"/>
<path d="M7050 2641 c0 -6 4 -13 10 -16 6 -3 7 1 4 9 -7 18 -14 21 -14 7z"/>
<path d="M8695 2640 c-3 -5 -1 -10 4 -10 6 0 11 5 11 10 0 6 -2 10 -4 10 -3 0
-8 -4 -11 -10z"/>
<path d="M1353 2595 c0 -8 4 -12 9 -9 5 3 6 10 3 15 -9 13 -12 11 -12 -6z"/>
<path d="M8690 2577 c0 -2 6 -10 14 -16 11 -9 16 -9 22 1 4 7 4 10 -1 6 -4 -4
-14 -3 -22 3 -7 6 -13 9 -13 6z"/>
<path d="M1296 2562 c-3 -5 1 -9 9 -9 8 0 12 4 9 9 -3 4 -7 8 -9 8 -2 0 -6 -4
-9 -8z"/>
<path d="M1355 2560 c-3 -5 -1 -10 4 -10 6 0 11 5 11 10 0 6 -2 10 -4 10 -3 0
-8 -4 -11 -10z"/>
<path d="M8661 2524 c0 -11 3 -14 6 -6 3 7 2 16 -1 19 -3 4 -6 -2 -5 -13z"/>
<path d="M1325 2500 c-3 -6 1 -7 9 -4 18 7 21 14 7 14 -6 0 -13 -4 -16 -10z"/>
<path d="M8735 2491 c-3 -5 -2 -12 3 -15 5 -3 9 1 9 9 0 17 -3 19 -12 6z"/>
<path d="M8630 2460 c0 -5 5 -10 11 -10 5 0 7 5 4 10 -3 6 -8 10 -11 10 -2 0
-4 -4 -4 -10z"/>
<path d="M8615 2359 c-4 -6 -5 -12 -2 -15 2 -3 7 2 10 11 7 17 1 20 -8 4z"/>
<path d="M8581 2324 c0 -11 3 -14 6 -6 3 7 2 16 -1 19 -3 4 -6 -2 -5 -13z"/>
<path d="M8531 2246 c-9 -10 -8 -15 2 -19 8 -3 13 3 13 14 0 23 0 23 -15 5z"/>
<path d="M8510 2171 c0 -7 -5 -9 -12 -5 -7 5 -8 3 -3 -5 5 -9 10 -10 18 -2 6
6 8 14 4 18 -4 3 -7 1 -7 -6z"/>
<path d="M8472 2137 c-8 -10 -6 -13 8 -14 11 -1 22 2 25 8 4 5 -2 6 -11 2 -12
-4 -15 -3 -10 5 10 16 1 15 -12 -1z"/>
<path d="M1421 2124 c0 -11 3 -14 6 -6 3 7 2 16 -1 19 -3 4 -6 -2 -5 -13z"/>
<path d="M8470 2100 c0 -4 7 -7 15 -6 23 3 26 12 5 13 -11 1 -20 -2 -20 -7z"/>
<path d="M8451 2044 c0 -11 3 -14 6 -6 3 7 2 16 -1 19 -3 4 -6 -2 -5 -13z"/>
<path d="M8420 2040 c-9 -6 -10 -10 -3 -10 6 0 15 5 18 10 8 12 4 12 -15 0z"/>
<path d="M8430 2016 c0 -2 8 -10 18 -17 15 -13 16 -12 3 4 -13 16 -21 21 -21
13z"/>
<path d="M8390 1989 c0 -5 5 -7 10 -4 6 3 10 8 10 11 0 2 -4 4 -10 4 -5 0 -10
-5 -10 -11z"/>
<path d="M8431 1973 c7 -12 15 -20 18 -17 3 2 -3 12 -13 22 -17 16 -18 16 -5
-5z"/>
<path d="M8366 1961 c-3 -4 1 -17 10 -27 14 -18 14 -17 3 5 -10 21 -9 23 5 18
10 -4 15 -3 11 3 -8 12 -22 13 -29 1z"/>
<path d="M1455 1949 c-4 -6 -5 -12 -2 -15 2 -3 7 2 10 11 7 17 1 20 -8 4z"/>
<path d="M8410 1939 c0 -5 5 -7 10 -4 6 3 10 8 10 11 0 2 -4 4 -10 4 -5 0 -10
-5 -10 -11z"/>
<path d="M1470 1920 c0 -5 5 -10 11 -10 5 0 7 5 4 10 -3 6 -8 10 -11 10 -2 0
-4 -4 -4 -10z"/>
<path d="M8366 1878 c3 -5 10 -6 15 -3 13 9 11 12 -6 12 -8 0 -12 -4 -9 -9z"/>
<path d="M2127 1873 c-2 -4 -3 -16 -2 -25 2 -10 -1 -18 -6 -18 -13 0 -7 -31 8
-47 19 -21 24 -15 8 11 -14 21 -14 24 2 37 15 12 16 12 11 -2 -10 -26 4 -39
25 -24 18 13 18 14 -2 25 -12 6 -19 15 -16 19 2 5 -2 14 -9 20 -8 7 -16 8 -19
4z m18 -12 c3 -5 2 -12 -3 -15 -5 -3 -9 1 -9 9 0 17 3 19 12 6z"/>
<path d="M8335 1860 c-3 -6 1 -7 9 -4 18 7 21 14 7 14 -6 0 -13 -4 -16 -10z"/>
<path d="M8267 1803 c-3 -5 6 -9 20 -10 19 -1 22 1 12 8 -17 11 -26 11 -32 2z"/>
<path d="M8268 1773 c6 -2 9 -10 6 -15 -4 -7 -2 -8 5 -4 13 9 5 26 -12 25 -9
0 -8 -2 1 -6z"/>
<path d="M2166 1755 c4 -8 8 -15 10 -15 2 0 4 7 4 15 0 8 -4 15 -10 15 -5 0
-7 -7 -4 -15z"/>
<path d="M8239 1768 c0 -2 -2 -13 -5 -26 -3 -19 -2 -21 10 -10 8 7 10 15 5 16
-5 2 -7 8 -3 13 3 5 3 9 0 9 -3 0 -6 -1 -7 -2z"/>
<path d="M1466 1742 c-3 -5 1 -9 9 -9 8 0 12 4 9 9 -3 4 -7 8 -9 8 -2 0 -6 -4
-9 -8z"/>
<path d="M2112 1741 c-11 -7 -11 -9 0 -14 9 -3 15 1 15 9 0 8 -1 14 -1 14 -1
0 -7 -4 -14 -9z"/>
<path d="M2190 1740 c0 -6 7 -10 15 -10 8 0 15 2 15 4 0 2 -7 6 -15 10 -8 3
-15 1 -15 -4z"/>
<path d="M1513 1714 c0 -8 4 -14 9 -14 4 0 8 5 8 11 0 5 6 7 13 3 6 -4 8 -3 4
1 -13 15 -34 14 -34 -1z"/>
<path d="M2157 1715 c-4 -8 -3 -16 1 -19 4 -3 9 4 9 15 2 23 -3 25 -10 4z"/>
<path d="M8215 1699 c-4 -6 -4 -13 -1 -16 3 -4 6 -1 6 6 0 7 5 9 12 5 7 -4 8
-3 4 4 -9 15 -13 15 -21 1z"/>
<path d="M8250 1699 c0 -5 5 -7 10 -4 6 3 10 8 10 11 0 2 -4 4 -10 4 -5 0 -10
-5 -10 -11z"/>
<path d="M8186 1663 c-6 -14 -5 -15 5 -6 7 7 10 15 7 18 -3 3 -9 -2 -12 -12z"/>
<path d="M2268 1653 c7 -3 16 -2 19 1 4 3 -2 6 -13 5 -11 0 -14 -3 -6 -6z"/>
<path d="M1560 1640 c-9 -6 -10 -10 -3 -10 6 0 15 5 18 10 8 12 4 12 -15 0z"/>
<path d="M2096 1642 c-2 -4 -1 -14 4 -22 7 -11 9 -9 7 8 -1 24 -3 26 -11 14z"/>
<path d="M2134 1636 c1 -8 5 -18 8 -22 4 -3 5 1 4 10 -1 8 -5 18 -8 22 -4 3
-5 -1 -4 -10z"/>
<path d="M2330 1612 c0 -6 5 -14 10 -17 6 -4 7 -11 4 -17 -4 -7 -2 -8 5 -4 9
6 9 12 -1 24 -7 10 -14 19 -15 21 -2 2 -3 -1 -3 -7z"/>
<path d="M2159 1593 c-13 -16 -12 -17 4 -4 9 7 17 15 17 17 0 8 -8 3 -21 -13z"/>
<path d="M2313 1592 c0 -12 5 -22 9 -22 11 0 10 12 -2 30 -7 12 -9 10 -7 -8z"/>
<path d="M8087 1572 c-15 -17 -15 -18 3 -19 11 -1 22 2 25 8 4 5 -2 6 -12 2
-16 -6 -16 -5 -4 10 18 23 8 22 -12 -1z"/>
<path d="M1566 1565 c-11 -8 -15 -15 -9 -15 6 0 16 7 23 15 16 19 11 19 -14 0z"/>
<path d="M2349 1559 c-11 -8 -9 -9 6 -7 12 2 19 -2 18 -9 -3 -14 13 -18 21 -5
8 14 -29 31 -45 21z"/>
<path d="M1593 1545 c0 -8 4 -15 9 -15 4 0 8 4 8 9 0 6 -4 12 -8 15 -5 3 -9
-1 -9 -9z"/>
<path d="M8115 1539 c-4 -6 -5 -12 -2 -15 2 -3 7 2 10 11 7 17 1 20 -8 4z"/>
<path d="M1615 1519 c-4 -6 -5 -12 -2 -15 2 -3 7 2 10 11 7 17 1 20 -8 4z"/>
<path d="M2390 1520 c-11 -7 -11 -10 -2 -10 7 0 10 -4 7 -10 -3 -5 0 -7 9 -4
11 4 14 0 11 -15 -2 -12 0 -21 6 -21 13 0 5 43 -9 48 -7 2 -10 8 -6 13 7 11 3
11 -16 -1z"/>
<path d="M1570 1499 c0 -5 5 -7 10 -4 6 3 10 8 10 11 0 2 -4 4 -10 4 -5 0 -10
-5 -10 -11z"/>
<path d="M8063 1481 c-13 -20 -13 -23 -1 -14 8 7 18 10 22 6 4 -4 4 1 0 11 -5
13 -4 17 4 12 6 -3 13 -3 16 2 14 22 -26 5 -41 -17z"/>
<path d="M1600 1480 c-9 -6 -10 -10 -3 -10 6 0 15 5 18 10 8 12 4 12 -15 0z"/>
<path d="M8003 1478 c-5 -7 -10 -24 -10 -38 -1 -14 1 -19 4 -12 3 6 9 12 14
12 6 0 7 -5 3 -12 -5 -7 -3 -8 6 -3 10 6 9 11 -5 22 -18 13 -18 13 1 28 10 8
14 15 8 15 -6 0 -16 -6 -21 -12z"/>
<path d="M2116 1467 c3 -10 9 -15 12 -12 3 3 0 11 -7 18 -10 9 -11 8 -5 -6z"/>
<path d="M8030 1463 c0 -6 8 -17 18 -24 16 -13 16 -13 2 6 -8 11 -16 22 -17
24 -2 2 -3 0 -3 -6z"/>
<path d="M7932 1396 c-14 -16 -11 -44 5 -50 11 -4 11 -1 3 14 -11 21 -6 40 10
40 5 0 7 -8 4 -17 -5 -14 -4 -15 4 -4 5 7 15 17 22 21 7 5 2 8 -14 8 -14 0
-30 -6 -34 -12z"/>
<path d="M2474 1385 c1 -8 6 -18 11 -22 4 -4 5 -3 2 4 -4 6 -2 13 5 15 8 3 6
6 -4 10 -10 4 -15 2 -14 -7z"/>
<path d="M2530 1379 c0 -5 -4 -7 -10 -4 -6 3 -7 -1 -4 -9 3 -9 10 -16 16 -16
5 0 6 5 2 12 -5 8 -2 9 11 4 15 -5 16 -4 5 9 -15 18 -20 19 -20 4z"/>
<path d="M7976 1382 c-3 -5 1 -9 9 -9 8 0 12 4 9 9 -3 4 -7 8 -9 8 -2 0 -6 -4
-9 -8z"/>
<path d="M8010 1380 c0 -5 5 -10 11 -10 5 0 7 5 4 10 -3 6 -8 10 -11 10 -2 0
-4 -4 -4 -10z"/>
<path d="M1670 1366 c0 -2 7 -7 16 -10 8 -3 12 -2 9 4 -6 10 -25 14 -25 6z"/>
<path d="M1655 1340 c3 -5 8 -10 11 -10 2 0 4 5 4 10 0 6 -5 10 -11 10 -5 0
-7 -4 -4 -10z"/>
<path d="M7900 1346 c0 -2 8 -10 18 -17 15 -13 16 -12 3 4 -13 16 -21 21 -21
13z"/>
<path d="M1701 1314 c0 -11 3 -14 6 -6 3 7 2 16 -1 19 -3 4 -6 -2 -5 -13z"/>
<path d="M2524 1319 c-4 -7 -3 -9 4 -5 5 3 13 0 15 -6 4 -9 6 -10 6 -1 1 17
-16 25 -25 12z"/>
<path d="M7852 1304 c-24 -16 -29 -34 -10 -34 6 0 9 3 5 6 -3 4 4 15 16 25 27
22 20 25 -11 3z"/>
<path d="M2095 1300 c-3 -5 -1 -10 4 -10 6 0 11 5 11 10 0 6 -2 10 -4 10 -3 0
-8 -4 -11 -10z"/>
<path d="M7950 1276 c7 -7 13 -7 20 0 6 6 3 10 -10 10 -13 0 -16 -4 -10 -10z"/>
<path d="M2520 1255 c-19 -22 -8 -25 13 -3 9 10 13 18 8 18 -5 0 -14 -7 -21
-15z"/>
<path d="M7797 1258 c-14 -12 -15 -15 -1 -33 11 -14 15 -15 14 -5 -4 29 0 41
12 34 7 -4 8 -3 4 4 -9 15 -9 15 -29 0z"/>
<path d="M7868 1263 c7 -3 16 -2 19 1 4 3 -2 6 -13 5 -11 0 -14 -3 -6 -6z"/>
<path d="M1700 1240 c-9 -6 -10 -10 -3 -10 6 0 15 5 18 10 8 12 4 12 -15 0z"/>
<path d="M2680 1236 c0 -2 8 -10 18 -17 15 -13 16 -12 3 4 -13 16 -21 21 -21
13z"/>
<path d="M2095 1220 c3 -5 8 -10 11 -10 2 0 4 5 4 10 0 6 -5 10 -11 10 -5 0
-7 -4 -4 -10z"/>
<path d="M7850 1219 c0 -5 5 -7 10 -4 6 3 10 8 10 11 0 2 -4 4 -10 4 -5 0 -10
-5 -10 -11z"/>
<path d="M7755 1209 c-4 -6 -5 -12 -2 -15 2 -3 7 2 10 11 7 17 1 20 -8 4z"/>
<path d="M7776 1205 c-9 -26 -7 -32 5 -12 6 10 9 21 6 23 -2 3 -7 -2 -11 -11z"/>
<path d="M1753 1195 c0 -7 6 -11 14 -8 7 3 13 6 13 8 0 2 -6 5 -13 8 -8 3 -14
-1 -14 -8z"/>
<path d="M2607 1199 c7 -7 15 -10 18 -7 3 3 -2 9 -12 12 -14 6 -15 5 -6 -5z"/>
<path d="M2653 1171 c0 -11 5 -18 9 -15 4 3 5 11 1 19 -7 21 -12 19 -10 -4z"/>
<path d="M7790 1179 c0 -5 5 -7 10 -4 6 3 10 8 10 11 0 2 -4 4 -10 4 -5 0 -10
-5 -10 -11z"/>
<path d="M7741 1164 c0 -11 3 -14 6 -6 3 7 2 16 -1 19 -3 4 -6 -2 -5 -13z"/>
<path d="M1760 1160 c-9 -6 -10 -10 -3 -10 6 0 15 5 18 10 8 12 4 12 -15 0z"/>
<path d="M2670 1136 c0 -2 8 -10 18 -17 15 -13 16 -12 3 4 -13 16 -21 21 -21
13z"/>
<path d="M7735 1131 c-3 -5 -2 -12 3 -15 5 -3 9 1 9 9 0 17 -3 19 -12 6z"/>
<path d="M2730 1119 c0 -5 5 -7 10 -4 6 3 10 8 10 11 0 2 -4 4 -10 4 -5 0 -10
-5 -10 -11z"/>
<path d="M2753 1097 c1 -7 -4 -11 -11 -9 -8 1 -11 -2 -7 -8 5 -8 13 -6 24 4
10 9 20 15 22 14 2 -2 3 -1 1 1 -6 11 -31 8 -29 -2z"/>
<path d="M2828 1072 c9 -10 19 -17 21 -16 6 5 -20 34 -30 34 -5 0 -1 -8 9 -18z"/>
<path d="M2813 1055 c0 -8 4 -12 9 -9 5 3 6 10 3 15 -9 13 -12 11 -12 -6z"/>
<path d="M1785 1040 c-3 -6 1 -7 9 -4 18 7 21 14 7 14 -6 0 -13 -4 -16 -10z"/>
<path d="M1826 1042 c-3 -5 1 -9 9 -9 8 0 12 4 9 9 -3 4 -7 8 -9 8 -2 0 -6 -4
-9 -8z"/>
<path d="M7560 1041 c0 -6 4 -13 10 -16 6 -3 7 1 4 9 -7 18 -14 21 -14 7z"/>
<path d="M7585 1040 c3 -5 8 -10 11 -10 2 0 4 5 4 10 0 6 -5 10 -11 10 -5 0
-7 -4 -4 -10z"/>
<path d="M7540 1020 c0 -5 5 -10 11 -10 5 0 8 -4 5 -8 -3 -5 1 -9 9 -9 21 0
19 10 -5 25 -12 7 -20 8 -20 2z"/>
<path d="M1876 1002 c-3 -4 4 -9 15 -9 23 -2 25 3 4 10 -8 4 -16 3 -19 -1z"/>
<path d="M2870 998 c0 -4 4 -8 9 -8 6 0 12 4 15 8 3 5 -1 9 -9 9 -8 0 -15 -4
-15 -9z"/>
<path d="M7510 1006 c0 -2 7 -9 15 -16 13 -11 14 -10 9 4 -5 14 -24 23 -24 12z"/>
<path d="M7480 980 c-6 -11 -15 -18 -19 -15 -11 6 -36 -23 -28 -32 4 -3 9 2
13 11 3 9 10 13 16 10 5 -3 4 -12 -3 -20 -18 -22 -7 -23 14 -2 9 10 12 18 6
18 -5 0 -7 5 -4 10 5 8 12 7 23 -2 14 -10 15 -10 5 2 -19 21 -16 34 5 19 15
-13 16 -12 3 4 -17 21 -18 21 -31 -3z"/>
<path d="M1875 971 c-3 -5 -2 -12 3 -15 5 -3 9 1 9 9 0 17 -3 19 -12 6z"/>
<path d="M2955 970 c-3 -6 1 -7 9 -4 18 7 21 14 7 14 -6 0 -13 -4 -16 -10z"/>
<path d="M7526 962 c-2 -4 4 -8 14 -8 10 0 16 4 14 8 -3 4 -9 8 -14 8 -5 0
-11 -4 -14 -8z"/>
<path d="M3017 944 c2 -7 11 -10 19 -7 19 7 18 10 -5 16 -13 3 -18 1 -14 -9z"/>
<path d="M1845 940 c-3 -6 1 -7 9 -4 18 7 21 14 7 14 -6 0 -13 -4 -16 -10z"/>
<path d="M1946 924 c-4 -9 -4 -19 -1 -22 3 -3 5 0 5 7 0 7 4 9 10 6 6 -3 7 1
4 9 -8 20 -10 20 -18 0z"/>
<path d="M2995 930 c3 -5 8 -10 11 -10 2 0 4 5 4 10 0 6 -5 10 -11 10 -5 0 -7
-4 -4 -10z"/>
<path d="M7486 925 c-11 -8 -15 -15 -9 -15 6 0 16 7 23 15 16 19 11 19 -14 0z"/>
<path d="M3080 910 c-8 -5 -11 -13 -6 -17 5 -4 11 -2 13 5 3 6 10 9 15 6 7 -4
8 -2 4 4 -9 14 -7 14 -26 2z"/>
<path d="M7380 901 c0 -5 7 -12 16 -15 14 -5 15 -4 4 9 -14 17 -20 19 -20 6z"/>
<path d="M2110 886 c0 -2 7 -7 16 -10 8 -3 12 -2 9 4 -6 10 -25 14 -25 6z"/>
<path d="M7336 872 c5 -21 4 -23 -14 -13 -26 14 -38 -2 -15 -20 12 -10 14 -10
9 -1 -4 6 -2 12 3 12 6 0 11 -8 12 -17 0 -14 2 -14 9 3 5 12 13 25 19 29 14 8
14 25 0 25 -5 0 -7 -4 -4 -10 3 -5 2 -10 -4 -10 -5 0 -12 6 -15 13 -3 6 -3 1
0 -11z"/>
<path d="M3110 860 c0 -6 4 -9 9 -5 5 3 12 -5 14 -17 5 -22 5 -21 4 1 -2 24
-27 44 -27 21z"/>
<path d="M3150 860 c0 -5 7 -10 16 -10 8 0 13 -4 10 -9 -3 -5 1 -12 9 -15 21
-8 25 -7 23 2 -2 4 -6 6 -10 5 -5 -2 -8 1 -8 7 0 5 -9 14 -20 20 -14 7 -20 7
-20 0z"/>
<path d="M7375 861 c-2 -5 5 -17 18 -27 l22 -19 -20 24 c-17 21 -18 23 -3 18
10 -3 19 -3 22 1 3 4 -4 8 -14 9 -11 1 -22 -2 -25 -6z"/>
<path d="M1916 842 c-3 -5 1 -9 9 -9 8 0 12 4 9 9 -3 4 -7 8 -9 8 -2 0 -6 -4
-9 -8z"/>
<path d="M3080 840 c-9 -6 -10 -10 -3 -10 6 0 15 5 18 10 8 12 4 12 -15 0z"/>
<path d="M7240 820 c-14 -10 -21 -22 -17 -26 4 -4 7 -1 7 7 0 12 2 12 9 0 7
-11 14 -10 37 5 23 16 27 16 22 3 -4 -9 -1 -16 7 -16 11 0 11 5 4 19 -10 18
-12 18 -35 3 -25 -16 -33 -8 -12 13 18 18 6 14 -22 -8z"/>
<path d="M3153 815 c0 -8 4 -12 9 -9 5 3 6 10 3 15 -9 13 -12 11 -12 -6z"/>
<path d="M2014 795 c0 -13 3 -22 7 -19 8 4 6 30 -2 38 -3 3 -5 -5 -5 -19z"/>
<path d="M2050 779 c0 -5 5 -7 10 -4 6 3 10 8 10 11 0 2 -4 4 -10 4 -5 0 -10
-5 -10 -11z"/>
<path d="M3190 781 c0 -6 4 -13 10 -16 6 -3 7 1 4 9 -7 18 -14 21 -14 7z"/>
<path d="M7228 773 c7 -3 16 -2 19 1 4 3 -2 6 -13 5 -11 0 -14 -3 -6 -6z"/>
<path d="M7137 754 c-7 -8 15 -44 27 -44 5 0 1 9 -8 19 -17 18 -17 19 1 24 14
4 14 5 2 6 -9 0 -18 -2 -22 -5z"/>
<path d="M7175 741 c-3 -5 0 -13 6 -17 7 -4 9 -3 5 4 -3 6 3 12 16 15 23 4 23
4 1 6 -12 0 -24 -3 -28 -8z"/>
<path d="M3276 727 c3 -10 9 -15 12 -12 3 3 0 11 -7 18 -10 9 -11 8 -5 -6z"/>
<path d="M7035 676 c10 -14 19 -26 22 -26 7 0 -17 39 -28 46 -6 3 -3 -5 6 -20z"/>
<path d="M7090 685 c0 -8 4 -15 10 -15 5 0 7 7 4 15 -4 8 -8 15 -10 15 -2 0
-4 -7 -4 -15z"/>
<path d="M3420 680 c0 -5 6 -7 14 -4 8 3 17 1 21 -5 3 -6 -2 -11 -12 -12 -11
0 -13 -3 -5 -6 15 -6 42 14 42 31 0 6 -5 4 -10 -4 -6 -10 -10 -11 -10 -2 0 6
-9 12 -20 12 -11 0 -20 -4 -20 -10z"/>
<path d="M7007 666 c-4 -10 -1 -13 8 -9 8 3 12 9 9 14 -7 12 -11 11 -17 -5z"/>
<path d="M3474 649 c-3 -5 3 -6 12 -2 12 4 15 3 10 -5 -4 -7 -2 -12 3 -12 6 0
11 6 11 13 0 9 2 9 9 -1 7 -11 9 -11 13 0 6 15 -48 22 -58 7z"/>
<path d="M6960 645 c-11 -13 -15 -13 -23 -3 -6 10 -7 9 -4 -4 3 -9 1 -19 -6
-22 -8 -3 -8 -5 -1 -5 6 -1 19 8 29 19 17 19 19 19 38 3 19 -18 19 -17 6 5
-16 26 -22 27 -39 7z"/>
<path d="M7020 642 c0 -5 7 -9 15 -9 8 0 12 4 9 9 -3 4 -9 8 -15 8 -5 0 -9 -4
-9 -8z"/>
<path d="M7066 642 c-3 -5 1 -9 9 -9 8 0 15 4 15 9 0 4 -4 8 -9 8 -6 0 -12 -4
-15 -8z"/>
<path d="M3439 613 c-13 -16 -12 -17 4 -4 16 13 21 21 13 21 -2 0 -10 -8 -17
-17z"/>
<path d="M3473 615 c0 -8 4 -12 9 -9 5 3 6 10 3 15 -9 13 -12 11 -12 -6z"/>
<path d="M6974 623 c3 -7 -1 -13 -11 -15 -15 -3 -15 -5 3 -10 22 -6 28 12 9
29 -4 4 -5 3 -1 -4z"/>
<path d="M3507 607 c-3 -8 1 -14 8 -14 7 0 11 6 8 14 -3 7 -6 13 -8 13 -2 0
-5 -6 -8 -13z"/>
<path d="M6813 584 c-2 -7 -13 -11 -23 -9 -22 4 -21 -27 1 -33 12 -3 12 -2 0
6 -20 14 -3 20 37 13 4 -1 0 -6 -8 -11 -9 -6 -10 -10 -3 -10 16 0 26 17 13 25
-5 3 -10 12 -10 18 1 7 12 -1 26 -18 19 -22 23 -24 14 -7 -6 12 -9 26 -6 30 2
4 -5 8 -16 8 -11 0 -22 -6 -25 -12z"/>
<path d="M6870 580 c0 -5 5 -10 10 -10 6 0 10 5 10 10 0 6 -4 10 -10 10 -5 0
-10 -4 -10 -10z"/>
<path d="M3535 560 c-3 -5 -1 -10 4 -10 6 0 11 5 11 10 0 6 -2 10 -4 10 -3 0
-8 -4 -11 -10z"/>
<path d="M3573 545 c0 -8 4 -12 9 -9 5 3 6 10 3 15 -9 13 -12 11 -12 -6z"/>
<path d="M6723 553 c-22 -8 -14 -21 12 -18 21 2 25 -1 22 -20 -1 -13 -8 -30
-15 -38 -11 -12 -10 -17 0 -23 7 -4 10 -4 6 1 -4 4 -2 15 4 23 17 20 20 52 7
68 -12 15 -16 16 -36 7z"/>
<path d="M3600 520 c-9 -6 -10 -10 -3 -10 6 0 15 5 18 10 8 12 4 12 -15 0z"/>
<path d="M3656 518 c3 -4 11 -5 19 -1 21 7 19 12 -4 10 -11 0 -18 -5 -15 -9z"/>
<path d="M6839 513 c-13 -16 -12 -17 4 -4 16 13 21 21 13 21 -2 0 -10 -8 -17
-17z"/>
<path d="M6710 511 c0 -6 5 -13 12 -17 6 -4 8 -3 4 4 -3 5 0 13 6 15 8 3 6 6
-4 6 -10 1 -18 -3 -18 -8z"/>
<path d="M3733 495 c0 -8 4 -12 9 -9 5 3 6 10 3 15 -9 13 -12 11 -12 -6z"/>
<path d="M3871 493 c9 -16 21 -21 37 -18 18 3 22 0 18 -11 -4 -11 -2 -12 13
-5 10 6 21 8 25 6 3 -3 3 -2 0 3 -3 4 -10 8 -15 8 -5 1 -11 3 -14 4 -3 1 -13
3 -23 4 -11 0 -27 8 -37 16 -17 14 -17 14 -4 -7z"/>
<path d="M6686 482 c-3 -5 1 -9 9 -9 8 0 15 4 15 9 0 4 -4 8 -9 8 -6 0 -12 -4
-15 -8z"/>
<path d="M3795 460 c3 -5 8 -10 11 -10 2 0 4 5 4 10 0 6 -5 10 -11 10 -5 0 -7
-4 -4 -10z"/>
<path d="M3827 459 c7 -7 15 -10 18 -7 3 3 -2 9 -12 12 -14 6 -15 5 -6 -5z"/>
<path d="M6654 458 c-4 -7 -4 -10 1 -6 4 4 15 2 24 -5 14 -11 14 -10 2 6 -16
20 -18 21 -27 5z"/>
<path d="M3868 453 c7 -3 16 -2 19 1 4 3 -2 6 -13 5 -11 0 -14 -3 -6 -6z"/>
<path d="M3900 451 c0 -6 4 -13 10 -16 6 -3 7 1 4 9 -7 18 -14 21 -14 7z"/>
<path d="M3935 439 c-11 -16 -1 -19 13 -3 7 8 8 14 3 14 -5 0 -13 -5 -16 -11z"/>
<path d="M3876 418 c3 -5 10 -6 15 -3 13 9 11 12 -6 12 -8 0 -12 -4 -9 -9z"/>
<path d="M3953 410 c-1 -11 2 -22 6 -24 4 -3 7 4 6 14 -2 27 -10 33 -12 10z"/>
<path d="M6335 410 c-4 -6 -11 -8 -16 -5 -5 4 -9 3 -10 -2 0 -4 -2 -18 -3 -30
-3 -30 -2 -29 23 12 11 19 18 35 16 35 -2 0 -7 -5 -10 -10z"/>
<path d="M6515 400 c-3 -5 -1 -10 4 -10 6 0 11 5 11 10 0 6 -2 10 -4 10 -3 0
-8 -4 -11 -10z"/>
<path d="M4033 375 c0 -8 4 -12 9 -9 4 3 8 9 8 15 0 5 -4 9 -8 9 -5 0 -9 -7
-9 -15z"/>
<path d="M4154 382 c3 -6 3 -12 -1 -15 -5 -2 -2 -2 6 0 8 2 26 -7 40 -19 l26
-23 -20 23 c-21 25 -63 52 -51 34z"/>
<path d="M4226 373 c-4 -9 -2 -21 3 -26 5 -5 7 -17 5 -26 -3 -9 1 -5 9 9 9 14
13 28 11 32 -6 10 10 11 19 1 4 -3 2 -12 -3 -18 -7 -9 -5 -18 7 -32 10 -10 15
-14 11 -8 -8 13 -6 34 6 55 5 8 6 12 1 8 -4 -4 -17 -1 -29 7 -26 19 -32 19
-40 -2z m21 -8 c0 -8 -4 -15 -9 -15 -10 0 -11 14 -1 23 9 10 10 9 10 -8z"/>
<path d="M6330 362 c0 -5 7 -9 15 -9 8 0 12 4 9 9 -3 4 -9 8 -15 8 -5 0 -9 -4
-9 -8z"/>
<path d="M6555 360 c-3 -5 -1 -10 4 -10 6 0 11 5 11 10 0 6 -2 10 -4 10 -3 0
-8 -4 -11 -10z"/>
<path d="M4095 340 c3 -5 8 -10 11 -10 2 0 4 5 4 10 0 6 -5 10 -11 10 -5 0 -7
-4 -4 -10z"/>
<path d="M6270 340 c0 -5 5 -10 10 -10 6 0 10 5 10 10 0 6 -4 10 -10 10 -5 0
-10 -4 -10 -10z"/>
<path d="M6425 340 c-3 -6 1 -7 9 -4 18 7 21 14 7 14 -6 0 -13 -4 -16 -10z"/>
<path d="M6185 318 l-20 -21 23 12 c12 6 22 16 22 21 0 13 -2 12 -25 -12z"/>
<path d="M6336 327 c3 -10 9 -15 12 -12 3 3 0 11 -7 18 -10 9 -11 8 -5 -6z"/>
<path d="M5931 323 c-1 -7 -4 -12 -8 -10 -9 2 -13 -6 -13 -25 0 -6 7 -3 16 8
13 16 15 16 10 2 -3 -10 0 -20 6 -24 6 -4 8 -3 4 4 -3 6 -2 13 3 16 5 4 13 -3
16 -15 4 -11 9 -18 12 -16 2 3 0 14 -6 25 -7 12 -7 22 0 29 6 6 5 10 -5 10 -8
0 -13 -4 -10 -9 3 -4 1 -8 -5 -8 -5 0 -12 6 -14 13 -4 10 -6 10 -6 0z"/>
<path d="M4250 311 c0 -6 4 -13 10 -16 6 -3 7 1 4 9 -7 18 -14 21 -14 7z"/>
<path d="M4334 280 c0 -16 3 -27 6 -25 8 5 6 42 -1 50 -3 2 -5 -8 -5 -25z"/>
<path d="M4373 295 c-3 -9 -3 -18 -1 -21 3 -3 8 4 11 16 6 23 -1 27 -10 5z"/>
<path d="M5846 302 c-2 -4 2 -16 10 -27 12 -16 14 -17 14 -2 0 9 5 17 10 17 6
0 9 -5 8 -11 -2 -6 4 -14 12 -16 12 -4 12 -3 2 5 -8 5 -14 13 -15 18 -1 5 -10
8 -20 7 -10 -2 -15 2 -12 7 3 6 4 10 1 10 -3 0 -7 -3 -10 -8z"/>
<path d="M6245 300 c-3 -6 1 -7 9 -4 18 7 21 14 7 14 -6 0 -13 -4 -16 -10z"/>
<path d="M5770 285 c-7 -9 -8 -15 -2 -15 5 0 12 7 16 15 3 8 4 15 2 15 -2 0
-9 -7 -16 -15z"/>
<path d="M6030 285 c0 -8 2 -15 4 -15 2 0 6 7 10 15 3 8 1 15 -4 15 -6 0 -10
-7 -10 -15z"/>
<path d="M4749 259 c17 -30 28 -31 16 -2 -5 10 -8 21 -7 24 0 3 -5 6 -12 6
-10 0 -9 -7 3 -28z"/>
<path d="M5676 282 c-4 -7 -2 -12 4 -12 6 0 8 -5 4 -11 -5 -8 -2 -9 12 -1 14
8 23 7 34 -3 11 -10 20 -11 30 -4 12 9 11 10 -4 5 -13 -5 -17 -2 -13 9 4 8 1
17 -5 21 -7 4 -8 3 -4 -4 10 -16 -7 -15 -23 1 -11 10 -13 10 -7 0 4 -7 3 -13
-3 -13 -5 0 -11 5 -13 12 -3 9 -6 9 -12 0z"/>
<path d="M6059 273 c-13 -16 -12 -17 4 -4 16 13 21 21 13 21 -2 0 -10 -8 -17
-17z"/>
<path d="M6116 278 c3 -5 10 -6 15 -3 13 9 11 12 -6 12 -8 0 -12 -4 -9 -9z"/>
<path d="M5616 252 c2 -24 13 -43 15 -26 0 5 2 18 3 30 1 11 -3 21 -9 21 -7 0
-11 -11 -9 -25z"/>
<path d="M5822 267 c-12 -14 -12 -58 -1 -51 4 2 5 13 2 24 -4 16 -2 19 11 14
9 -3 16 -1 16 4 0 18 -17 23 -28 9z"/>
<path d="M4430 256 c7 -7 13 -7 20 0 6 6 3 10 -10 10 -13 0 -16 -4 -10 -10z"/>
<path d="M4510 266 c0 -2 9 -6 20 -9 11 -3 18 -1 14 4 -5 9 -34 13 -34 5z"/>
<path d="M4821 248 c-6 -10 -9 -18 -6 -18 3 0 15 8 26 18 13 13 15 19 5 19 -7
0 -18 -9 -25 -19z"/>
<path d="M5927 259 c7 -7 15 -10 18 -7 3 3 -2 9 -12 12 -14 6 -15 5 -6 -5z"/>
<path d="M4670 245 c0 -8 4 -15 10 -15 5 0 7 7 4 15 -4 8 -8 15 -10 15 -2 0
-4 -7 -4 -15z"/>
<path d="M5165 250 c-3 -5 -3 -10 2 -10 4 0 1 -4 -7 -10 -8 -5 -11 -12 -7 -16
7 -7 36 23 37 39 0 10 -18 9 -25 -3z"/>
<path d="M5309 255 c-1 -3 -2 -8 -3 -12 -1 -5 -5 -14 -9 -20 -5 -8 -4 -13 2
-13 6 0 11 3 12 8 0 4 2 15 4 25 3 15 -3 26 -6 12z"/>
<path d="M5780 251 c0 -6 4 -13 10 -16 6 -3 7 1 4 9 -7 18 -14 21 -14 7z"/>
<path d="M5705 240 c3 -5 11 -10 16 -10 6 0 7 5 4 10 -3 6 -11 10 -16 10 -6 0
-7 -4 -4 -10z"/>
<path d="M5876 238 c3 -5 10 -6 15 -3 13 9 11 12 -6 12 -8 0 -12 -4 -9 -9z"/>
<path d="M4535 231 c-3 -5 -2 -12 3 -15 5 -3 9 1 9 9 0 17 -3 19 -12 6z"/>
<path d="M4776 221 c-3 -5 2 -15 12 -22 15 -12 16 -12 5 2 -7 9 -10 19 -6 22
3 4 4 7 0 7 -3 0 -8 -4 -11 -9z"/>
<path d="M4830 220 c-13 -8 -12 -10 3 -10 9 0 17 5 17 10 0 12 -1 12 -20 0z"/>
<path d="M5579 228 c-5 -16 -4 -50 1 -53 4 -3 7 6 6 18 -1 12 6 25 14 29 12 5
12 7 -2 7 -10 1 -18 0 -19 -1z"/>
<path d="M5680 220 c8 -5 20 -10 25 -10 6 0 3 5 -5 10 -8 5 -19 10 -25 10 -5
0 -3 -5 5 -10z"/>
<path d="M4669 203 c-13 -16 -12 -17 4 -4 9 7 17 15 17 17 0 8 -8 3 -21 -13z"/>
<path d="M5216 205 c-3 -8 -1 -15 4 -15 6 0 10 7 10 15 0 8 -2 15 -4 15 -2 0
-6 -7 -10 -15z"/>
<path d="M5320 211 c0 -6 4 -13 10 -16 6 -3 7 1 4 9 -7 18 -14 21 -14 7z"/>
<path d="M5030 200 c0 -5 5 -10 10 -10 6 0 10 5 10 10 0 6 -4 10 -10 10 -5 0
-10 -4 -10 -10z"/>
<path d="M4913 185 c0 -8 4 -12 9 -9 5 3 6 10 3 15 -9 13 -12 11 -12 -6z"/>
<path d="M5155 190 c-3 -5 -1 -10 4 -10 6 0 11 5 11 10 0 6 -2 10 -4 10 -3 0
-8 -4 -11 -10z"/>
<path d="M5270 189 c0 -5 5 -7 10 -4 6 3 10 8 10 11 0 2 -4 4 -10 4 -5 0 -10
-5 -10 -11z"/>
<path d="M5296 183 c-6 -14 -5 -15 5 -6 7 7 10 15 7 18 -3 3 -9 -2 -12 -12z"/>
<path d="M5070 178 c0 -4 4 -8 9 -8 6 0 12 4 15 8 3 5 -1 9 -9 9 -8 0 -15 -4
-15 -9z"/>
<path d="M5340 180 c-9 -6 -10 -10 -3 -10 6 0 15 5 18 10 8 12 4 12 -15 0z"/>
<path d="M5496 158 c3 -5 10 -6 15 -3 13 9 11 12 -6 12 -8 0 -12 -4 -9 -9z"/>
<path d="M5625 160 c-3 -6 1 -7 9 -4 18 7 21 14 7 14 -6 0 -13 -4 -16 -10z"/>
<path d="M4953 115 c0 -8 4 -12 9 -9 4 3 8 9 8 15 0 5 -4 9 -8 9 -5 0 -9 -7
-9 -15z"/>
<path d="M5356 118 c3 -5 10 -6 15 -3 13 9 11 12 -6 12 -8 0 -12 -4 -9 -9z"/>
</g>
</svg>
